<?xml version="1.0" encoding="UTF-8" standalone="no"?>
<!-- Created with Inkscape (http://www.inkscape.org/) -->

<svg
   width="36"
   height="36"
   viewBox="0 0 36 36"
   version="1.1"
   id="svg5"
   inkscape:version="1.1 (c4e8f9ed74, 2021-05-24)"
   sodipodi:docname="forget.svg"
   inkscape:export-filename="/home/fab/dev/wiki/apps/img/brightness.png"
   inkscape:export-xdpi="48"
   inkscape:export-ydpi="48"
   xmlns:inkscape="http://www.inkscape.org/namespaces/inkscape"
   xmlns:sodipodi="http://sodipodi.sourceforge.net/DTD/sodipodi-0.dtd"
   xmlns="http://www.w3.org/2000/svg"
   xmlns:svg="http://www.w3.org/2000/svg">
  <sodipodi:namedview
     id="namedview7"
     pagecolor="#ffffff"
     bordercolor="#666666"
     borderopacity="1.0"
     inkscape:pageshadow="2"
     inkscape:pageopacity="0.0"
     inkscape:pagecheckerboard="true"
     inkscape:document-units="px"
     showgrid="false"
     units="px"
     width="36px"
     inkscape:zoom="13.304083"
     inkscape:cx="23.639359"
     inkscape:cy="18.11474"
     inkscape:window-width="1920"
     inkscape:window-height="1056"
     inkscape:window-x="0"
     inkscape:window-y="1080"
     inkscape:window-maximized="1"
     inkscape:current-layer="g1293" />
  <defs
     id="defs2" />
  <g
     inkscape:label="Calque 1"
     inkscape:groupmode="layer"
     id="layer1">
    <g
       id="g1293">
      <path
         id="rect1965"
         style="fill:#cccccc;stroke:#000000;stroke-width:3;stroke-linecap:round;stroke-linejoin:round;paint-order:stroke markers fill"
         d="m 7.4553213,9.456685 c -0.2336509,0.233651 -0.3150554,0.527396 -0.183682,0.65877 l 9.8843037,9.884303 -9.8843034,9.884304 c -0.1313734,0.131373 -0.048588,0.426499 0.1850627,0.66015 0.2336507,0.233651 0.5273962,0.315055 0.6587695,0.183682 l 9.8843032,-9.884303 9.885685,9.885684 c 0.131373,0.131374 0.423737,0.04859 0.657388,-0.185063 0.233651,-0.233651 0.317817,-0.527396 0.186444,-0.658769 l -9.885685,-9.885685 9.884304,-9.884303 C 28.859284,9.984082 28.777881,9.690336 28.544229,9.456685 28.310578,9.223035 28.015452,9.140249 27.884078,9.271623 L 17.999775,19.155926 8.1154718,9.271622 C 7.9840985,9.140249 7.6889722,9.223034 7.4553213,9.456685 Z" />
    </g>
  </g>
</svg>
