<?xml version="1.0" encoding="UTF-8" standalone="no"?>
<svg
   xmlns:dc="http://purl.org/dc/elements/1.1/"
   xmlns:cc="http://creativecommons.org/ns#"
   xmlns:rdf="http://www.w3.org/1999/02/22-rdf-syntax-ns#"
   xmlns:svg="http://www.w3.org/2000/svg"
   xmlns="http://www.w3.org/2000/svg"
   xmlns:sodipodi="http://sodipodi.sourceforge.net/DTD/sodipodi-0.dtd"
   xmlns:inkscape="http://www.inkscape.org/namespaces/inkscape"
   height="96"
   viewBox="0 0 96 96"
   width="96"
   version="1.1"
   id="svg6"
   sodipodi:docname="cached1.svg"
   inkscape:version="0.92.4 (5da689c313, 2019-01-14)">
  <metadata
     id="metadata12">
    <rdf:RDF>
      <cc:Work
         rdf:about="">
        <dc:format>image/svg+xml</dc:format>
        <dc:type
           rdf:resource="http://purl.org/dc/dcmitype/StillImage" />
        <dc:title></dc:title>
      </cc:Work>
    </rdf:RDF>
  </metadata>
  <defs
     id="defs10" />
  <sodipodi:namedview
     pagecolor="#ffffff"
     bordercolor="#666666"
     borderopacity="1"
     objecttolerance="10"
     gridtolerance="10"
     guidetolerance="10"
     inkscape:pageopacity="0"
     inkscape:pageshadow="2"
     inkscape:window-width="1920"
     inkscape:window-height="1016"
     id="namedview8"
     showgrid="false"
     inkscape:zoom="4.9166667"
     inkscape:cx="-23.25368"
     inkscape:cy="25.350451"
     inkscape:window-x="0"
     inkscape:window-y="27"
     inkscape:window-maximized="1"
     inkscape:current-layer="svg6" />
  <circle
     cx="48"
     cy="48"
     id="ellipse2"
     style="fill:#2076db;fill-opacity:1;stroke-width:3.33333349"
     r="40" />
  <path
     d="M 71.333333,34.666666 58,48 h 10 c 0,11.033334 -8.966667,20 -20,20 -3.366667,0 -6.566667,-0.833334 -9.333333,-2.333334 L 33.8,70.533334 c 4.1,2.6 8.966667,4.133332 14.2,4.133332 14.733333,0 26.666667,-11.933332 26.666667,-26.666666 h 10 z M 28,48 c 0,-11.033334 8.966667,-20 20,-20 3.366667,0 6.566667,0.833334 9.333333,2.333334 L 62.2,25.466666 c -4.1,-2.6 -8.966667,-4.133332 -14.2,-4.133332 -14.733333,0 -26.666667,11.933332 -26.666667,26.666666 h -10 L 24.666667,61.333334 38,48 Z"
     id="path4"
     inkscape:connector-curvature="0"
     style="fill:#ffffff;fill-opacity:1;stroke-width:3.33333349" />
</svg>
