<?xml version="1.0" encoding="UTF-8" standalone="no"?>
<!-- Created with Inkscape (http://www.inkscape.org/) -->

<svg
   xmlns:dc="http://purl.org/dc/elements/1.1/"
   xmlns:cc="http://creativecommons.org/ns#"
   xmlns:rdf="http://www.w3.org/1999/02/22-rdf-syntax-ns#"
   xmlns:svg="http://www.w3.org/2000/svg"
   xmlns="http://www.w3.org/2000/svg"
   xmlns:sodipodi="http://sodipodi.sourceforge.net/DTD/sodipodi-0.dtd"
   xmlns:inkscape="http://www.inkscape.org/namespaces/inkscape"
   width="24px"
   height="24px"
   viewBox="0 0 24 24"
   version="1.1"
   id="SVGRoot"
   sodipodi:docname="drawing-3.svg"
   inkscape:version="0.92.4 (5da689c313, 2019-01-14)">
  <defs
     id="defs1558" />
  <sodipodi:namedview
     id="base"
     pagecolor="#ffffff"
     bordercolor="#666666"
     borderopacity="1.0"
     inkscape:pageopacity="0.0"
     inkscape:pageshadow="2"
     inkscape:zoom="21.333333"
     inkscape:cx="8.6107659"
     inkscape:cy="13.057991"
     inkscape:document-units="px"
     inkscape:current-layer="layer1"
     showgrid="false"
     inkscape:window-width="1920"
     inkscape:window-height="995"
     inkscape:window-x="0"
     inkscape:window-y="28"
     inkscape:window-maximized="1"
     inkscape:grid-bbox="true" />
  <metadata
     id="metadata1561">
    <rdf:RDF>
      <cc:Work
         rdf:about="">
        <dc:format>image/svg+xml</dc:format>
        <dc:type
           rdf:resource="http://purl.org/dc/dcmitype/StillImage" />
      </cc:Work>
    </rdf:RDF>
  </metadata>
  <g
     inkscape:label="Layer 1"
     inkscape:groupmode="layer"
     id="layer1">
    <path
       style="fill:#000000;stroke-width:0.0976927"
       d="M 4.2379367,20.038974 C 2.8195768,19.644285 1.7159649,18.401219 1.448239,16.896766 1.3835526,16.533269 1.3573433,14.530657 1.3753789,11.329634 1.403106,6.4085407 1.4069278,6.3216545 1.6193364,5.7834483 2.0193951,4.76977 2.8734339,3.8855258 3.8516009,3.4722339 4.3708842,3.252828 4.4593525,3.2486391 9.2034482,3.2188344 c 3.1177958,-0.019588 5.0191608,0.00701 5.3761178,0.075192 0.765794,0.1462833 1.453362,0.5313108 2.023776,1.1332843 0.799941,0.8442 1.168564,1.8536929 1.168564,3.2001725 0,0.3527104 0.02195,0.6412917 0.04877,0.6412917 0.02682,0 1.0849,-0.5368305 2.351283,-1.1929567 1.266383,-0.6561263 2.342976,-1.1929568 2.392427,-1.1929568 0.04945,0 0.157801,0.070299 0.240774,0.1562206 0.133512,0.1382559 0.15086,0.7890642 0.15086,5.659444 0,4.870379 -0.01735,5.521187 -0.15086,5.659443 -0.08297,0.08592 -0.191321,0.156221 -0.240774,0.156221 -0.04945,0 -1.126044,-0.536831 -2.392427,-1.192957 -1.266383,-0.656126 -2.32446,-1.192957 -2.351283,-1.192957 -0.02682,0 -0.04877,0.326121 -0.04877,0.724711 0,1.379088 -0.385157,2.352359 -1.274184,3.219796 -0.581311,0.567193 -1.161397,0.882298 -1.886344,1.024665 -0.306496,0.06019 -2.396534,0.09826 -5.180758,0.09435 -3.7909437,-0.0053 -4.7656768,-0.034 -5.1926833,-0.152826 z M 15.160174,19.025933 c 0.602164,-0.332944 1.097297,-0.833039 1.41765,-1.43186 l 0.282062,-0.527242 0.02724,-5.181646 C 16.913565,6.8544981 16.908578,6.6875368 16.715917,6.1543102 16.46429,5.4578809 15.920106,4.8155076 15.26197,4.4380216 L 14.747839,4.1431328 H 9.5637259 4.3796124 L 3.9672776,4.371118 C 3.3598139,4.7069924 2.8145268,5.2570271 2.5241142,5.8268466 l -0.256548,0.5033736 v 5.3683058 5.368305 l 0.256548,0.503374 c 0.3786002,0.742852 1.1336495,1.394483 1.9028778,1.642241 0.1323447,0.04263 2.5086764,0.0694 5.2807371,0.05949 l 5.0401099,-0.01802 z M 8.1323793,17.283689 C 7.9650752,17.110439 7.8928556,16.889472 7.8416229,16.394069 7.7803411,15.801496 7.7437303,15.715459 7.4790031,15.54189 L 7.1845471,15.34883 6.5980976,15.636127 C 5.6103149,16.120034 5.5515271,16.089621 4.7656189,14.688138 3.9493585,13.232528 3.9455455,13.082537 4.7104439,12.517706 5.4283902,11.987546 5.4808715,11.687314 4.9386149,11.212399 4.0796896,10.46014 3.9248271,10.265127 3.9859877,10.012786 4.0183693,9.8791834 4.3168867,9.2877248 4.6493597,8.6984336 5.3954243,7.3760724 5.5213756,7.3093307 6.4501877,7.7441718 7.0638408,8.0314653 7.0695308,8.0321281 7.3674402,7.8510277 7.6424995,7.6838179 7.6724605,7.6136285 7.7309188,6.9995086 7.7659591,6.6313999 7.8254674,6.2809975 7.8631594,6.2208364 8.0286542,5.9566858 8.3996865,5.8828614 9.5617783,5.8828614 c 1.1381567,0 1.2240387,0.013812 1.4332937,0.2305016 0.167305,0.1732485 0.239524,0.3942166 0.290757,0.8896194 0.06155,0.5951848 0.09717,0.6781361 0.367213,0.8551893 l 0.299048,0.1960716 0.437853,-0.2264581 c 0.54072,-0.2796602 0.926839,-0.38054 1.161424,-0.3034402 0.262295,0.086207 1.436478,2.2255117 1.436478,2.617193 0,0.272707 -0.07864,0.374349 -0.570837,0.737807 -0.520462,0.38433 -0.571294,0.454535 -0.576013,0.795562 -0.0048,0.346705 0.03337,0.399566 0.522354,0.723481 0.619041,0.410065 0.860459,0.739832 0.766367,1.046823 -0.03633,0.118535 -0.333821,0.690117 -0.661088,1.270182 -0.735577,1.303772 -0.864675,1.371333 -1.791364,0.937486 -0.613653,-0.287293 -0.619343,-0.287956 -0.917252,-0.106855 -0.275059,0.16721 -0.305021,0.237398 -0.363479,0.851518 -0.03504,0.368109 -0.09455,0.718511 -0.13224,0.778673 -0.165495,0.264151 -0.536528,0.337975 -1.6986195,0.337975 -1.1381566,0 -1.224039,-0.01381 -1.4332942,-0.230501 z m 2.4829697,-1.395312 0.06616,-0.731097 0.459931,-0.215248 c 0.252963,-0.118386 0.533839,-0.299817 0.62417,-0.403179 0.160289,-0.18341 0.181254,-0.179901 0.871674,0.145913 l 0.707434,0.333843 0.437556,-0.785545 c 0.240656,-0.432051 0.437556,-0.809305 0.437556,-0.838346 0,-0.02904 -0.273188,-0.231463 -0.607085,-0.44983 l -0.607084,-0.397031 0.0071,-0.840966 0.0071,-0.840965 0.551818,-0.409185 0.551817,-0.409185 -0.143661,-0.2876802 C 13.90077,9.6016516 13.694244,9.2283034 13.520838,8.9302133 L 13.205554,8.3882311 12.53692,8.7071353 11.868286,9.0260395 11.244021,8.6282757 C 10.900676,8.4095056 10.605776,8.2209155 10.588688,8.2091864 10.5716,8.1974574 10.528399,7.8817314 10.492686,7.5075732 L 10.427745,6.8272855 9.5033161,6.798977 8.5788873,6.7706687 8.5124159,7.5052199 8.4459447,8.2397711 7.9860138,8.4550193 C 7.7330517,8.5734058 7.4521753,8.7548361 7.3618437,8.8581977 7.2015497,9.0416138 7.1806979,9.0381496 6.4937548,8.7139768 L 5.789905,8.3818257 5.3487645,9.1680274 C 5.1061372,9.6004383 4.907624,9.9761756 4.907624,10.002999 c 0,0.02682 0.2381969,0.235 0.5293266,0.462615 0.5572187,0.435652 0.5784325,0.481263 0.6675326,1.435243 l 0.056038,0.599983 -0.5790004,0.42283 -0.5790004,0.42283 0.144409,0.289178 c 0.079425,0.159048 0.2862866,0.533069 0.4596928,0.83116 l 0.315284,0.541981 0.6660218,-0.317657 0.6660217,-0.317659 0.6417582,0.402241 c 0.6806458,0.426613 0.7559986,0.560426 0.7559986,1.34252 0,0.202762 0.028801,0.398482 0.064001,0.434932 0.035201,0.03645 0.4621346,0.06628 0.9487419,0.06628 H 10.54919 Z M 8.5847804,14.174513 C 8.0978806,13.989817 7.5124326,13.422624 7.2560449,12.887211 6.9946036,12.341243 6.9923599,11.060334 7.2518966,10.518894 7.480856,10.041243 7.9781304,9.532993 8.4424745,9.3020387 8.9102373,9.0693839 9.7960234,9.0084219 10.358406,9.1701796 c 0.630283,0.181288 1.471848,1.0527534 1.646916,1.7054314 0.155864,0.581082 0.09747,1.499348 -0.125978,1.981043 -0.214651,0.462733 -0.747485,1.015447 -1.197226,1.241894 -0.469138,0.236214 -1.5697925,0.27608 -2.0973374,0.07597 z m 1.4567916,-0.747729 c 1.090101,-0.31339 1.601487,-1.731471 0.972786,-2.697548 -0.636503,-0.9780666 -1.8656225,-1.1096933 -2.6619527,-0.285069 -0.9209655,0.953687 -0.5813409,2.493783 0.6502065,2.948491 0.4560859,0.168395 0.5600364,0.17181 1.0389602,0.03413 z M 22.092,11.698526 c 0,-2.5424895 -0.02198,-4.6227078 -0.04884,-4.6227078 -0.02686,0 -0.998882,0.4922893 -2.160047,1.0939762 l -2.111212,1.0939761 v 2.4347425 2.434741 l 2.088045,1.088667 c 1.148426,0.598767 2.120447,1.091063 2.160048,1.093989 0.0396,0.0029 0.072,-2.074895 0.072,-4.617384 z"
       id="path4120"
       inkscape:connector-curvature="0" />
    <path
       style="fill:#cccccc;fill-opacity:0.99607843;stroke:#140000;stroke-width:0.009375;stroke-linejoin:round;stroke-miterlimit:4;stroke-dasharray:none;stroke-opacity:1"
       d="M 4.5888909,19.196835 C 3.8685408,19.117861 2.9870863,18.382015 2.4871879,17.442316 L 2.2920159,17.075435 V 11.707574 6.3397129 L 2.5123352,5.9103919 C 2.806026,5.3380968 3.4345336,4.6975814 4.0263909,4.3674097 l 0.3984375,-0.2222711 5.1448224,-2.5e-6 5.1448232,-2.6e-6 0.447762,0.2680892 c 0.726379,0.4349058 1.264335,1.0504489 1.523565,1.7433051 0.182709,0.4883318 0.194831,0.9032042 0.175489,6.0057752 l -0.01858,4.899981 -0.180495,0.326581 c -0.437926,0.792368 -0.81249,1.190639 -1.511877,1.607566 l -0.406712,0.242453 -4.9484637,-0.0069 c -2.7216553,-0.0038 -5.0644795,-0.01961 -5.2062764,-0.03516 z m 5.8056131,-1.692353 c 0.538776,-0.04856 0.795858,-0.144793 0.884088,-0.330924 0.03129,-0.06601 0.08834,-0.374044 0.126778,-0.684527 0.03844,-0.310484 0.0937,-0.616772 0.122798,-0.68064 0.06044,-0.132649 0.395912,-0.366382 0.525861,-0.366382 0.04785,0 0.312217,0.09807 0.587485,0.217927 0.275269,0.11986 0.589091,0.227914 0.697384,0.240121 0.392421,0.04423 0.600632,-0.187451 1.296292,-1.442423 0.518337,-0.935082 0.584732,-1.109331 0.500331,-1.313091 -0.09343,-0.22556 -0.244398,-0.385832 -0.622001,-0.660332 -0.593928,-0.431761 -0.643379,-0.491792 -0.643379,-0.781042 0,-0.138434 0.02202,-0.292842 0.04893,-0.343129 0.02691,-0.05029 0.248661,-0.250436 0.492776,-0.444777 0.547099,-0.435551 0.601905,-0.513053 0.573303,-0.810722 C 14.94735,9.7111254 14.084694,8.0539409 13.697856,7.6316127 13.545888,7.4657023 13.533509,7.4613507 13.293691,7.4895366 13.020681,7.5216235 12.584906,7.6854106 12.210798,7.896544 L 11.967566,8.0338152 11.725078,7.8705138 C 11.591709,7.7806981 11.458918,7.662982 11.429986,7.6089227 11.401054,7.5548634 11.346643,7.2860128 11.309071,7.011477 11.233414,6.4586412 11.109126,6.1497317 10.901762,5.9991323 10.776378,5.9080705 10.705204,5.902946 9.5658248,5.902946 c -1.6854304,0 -1.7106422,0.012115 -1.824562,0.8767191 -0.1047145,0.7947412 -0.1279387,0.8628063 -0.3490509,1.0229791 -0.1058128,0.07665 -0.2497833,0.1393643 -0.3199341,0.1393643 -0.070151,0 -0.3382155,-0.093405 -0.5956987,-0.2075671 C 5.9004532,7.479001 5.7336852,7.4441442 5.5182836,7.5341447 5.2990677,7.625739 5.0874847,7.8957377 4.6843967,8.5982585 4.2300487,9.3901174 3.9638909,9.9463559 3.9638909,10.104029 c 0,0.188674 0.1900199,0.435543 0.6585406,0.85556 0.8549445,0.766436 0.8611502,0.879892 0.083647,1.529295 -0.6244723,0.521585 -0.6751463,0.651478 -0.4684182,1.200705 0.1735708,0.461135 0.9047613,1.733245 1.1511479,2.002743 0.1981122,0.216696 0.2301708,0.234051 0.4323252,0.234051 0.1701933,0 0.3383084,-0.05858 0.762315,-0.265624 0.2991831,-0.146094 0.5648987,-0.265625 0.5904789,-0.265625 0.025581,0 0.1420636,0.06574 0.2588517,0.146094 0.2372334,0.163221 0.3185555,0.318894 0.3644494,0.697656 0.1160381,0.957665 0.2801362,1.211662 0.820792,1.270452 0.4133967,0.04495 1.2492759,0.04267 1.7764836,-0.0049 z"
       id="path4200"
       inkscape:connector-curvature="0" />
    <path
       style="fill:#cccccc;fill-opacity:0.99607843;stroke:#140000;stroke-width:0.009375;stroke-linejoin:round;stroke-miterlimit:4;stroke-dasharray:none;stroke-opacity:1"
       d="M 20.901391,15.73208 C 20.295532,15.420896 19.35686,14.934463 18.815453,14.651117 l -0.984375,-0.515175 -0.01213,-2.431836 -0.01213,-2.4318363 1.25432,-0.6488087 C 19.75101,8.2666163 20.697117,7.7773715 21.163595,7.5362505 l 0.848141,-0.4384019 0.03077,0.7107828 c 0.03782,0.8736804 0.03034,6.5558086 -0.0101,7.6745886 l -0.02945,0.814648 z"
       id="path4202"
       inkscape:connector-curvature="0" />
    <path
       style="fill:#cccccc;fill-opacity:0.99607843;stroke:#140000;stroke-width:0.009375;stroke-linejoin:round;stroke-miterlimit:4;stroke-dasharray:none;stroke-opacity:1"
       d="M 9.3171921,13.470455 C 8.7500729,13.336252 8.2841527,12.979678 8.0476447,12.498856 7.9045043,12.20785 7.8935784,12.152266 7.8935784,11.71506 c 0,-0.437104 0.010938,-0.492788 0.1537769,-0.782822 0.1630635,-0.3311 0.4974104,-0.675957 0.8099378,-0.835396 0.094455,-0.04819 0.3064945,-0.1123928 0.4711985,-0.1426782 0.577974,-0.1062767 1.2146624,0.1722982 1.5892004,0.6953352 0.267616,0.373722 0.342841,0.641981 0.316793,1.129716 -0.04566,0.854949 -0.536177,1.450892 -1.3737954,1.669063 -0.3046893,0.07936 -0.302263,0.07926 -0.5434975,0.02218 z"
       id="path4204"
       inkscape:connector-curvature="0" />
    <path
       style="fill:#e6e6e6;fill-opacity:0.44970414;stroke:#140000;stroke-width:0.009375;stroke-linejoin:round;stroke-miterlimit:4;stroke-dasharray:none;stroke-opacity:1"
       d="M 9.0282241,16.579182 C 8.7010706,16.558735 8.6671532,16.503426 8.6667545,15.989738 8.6662328,15.317822 8.5518145,15.153342 7.732815,14.647173 l -0.4795495,-0.296378 -0.659971,0.311573 c -0.362984,0.171365 -0.6641812,0.306146 -0.6693272,0.299513 -0.024112,-0.03108 -0.5423761,-0.9373 -0.6948481,-1.214989 -0.094313,-0.171767 -0.1714783,-0.333498 -0.1714783,-0.359403 0,-0.0259 0.2373047,-0.220704 0.5273438,-0.432889 0.290039,-0.212185 0.5442051,-0.400596 0.5648135,-0.418691 0.040876,-0.03589 -0.033898,-0.909875 -0.1107537,-1.294527 -0.06225,-0.311553 -0.1686204,-0.448745 -0.6649973,-0.857683 -0.225586,-0.185848 -0.4101563,-0.367083 -0.4101563,-0.4027437 0,-0.035661 0.039205,-0.1345984 0.087121,-0.2198611 C 5.0989285,9.6758314 5.2712134,9.3634929 5.4338672,9.0670085 5.596521,8.7705242 5.7479094,8.5037882 5.770286,8.4742621 5.7992863,8.4359957 5.9821347,8.4987997 6.406962,8.692945 7.2143197,9.0619059 7.1622431,9.0543776 7.4220474,8.8396878 7.5436277,8.7392196 7.828423,8.5667286 8.0549257,8.4563745 l 0.4118231,-0.200644 0.053597,-0.5904547 c 0.029478,-0.3247501 0.053444,-0.6504385 0.053259,-0.7237519 l -3.38e-4,-0.1332971 0.8867772,0.01611 c 0.4877277,0.00886 0.901188,0.030547 0.918801,0.048192 0.01761,0.017645 0.06242,0.3233361 0.09957,0.6793129 0.03715,0.3559768 0.08248,0.6603357 0.10073,0.676353 0.125163,0.1098326 1.247991,0.7919393 1.303626,0.7919393 0.03808,0 0.158042,-0.045316 0.266585,-0.1007031 0.108543,-0.055387 0.389965,-0.1901108 0.625382,-0.2993868 l 0.42803,-0.1986837 0.398362,0.7095431 c 0.219099,0.3902487 0.420816,0.7534181 0.44826,0.8070431 0.04535,0.088608 -0.0012,0.1354674 -0.509986,0.5138194 l -0.559884,0.416319 8.3e-4,0.845556 8.29e-4,0.845555 0.479641,0.315918 c 0.263802,0.173755 0.53807,0.363598 0.609484,0.421875 l 0.129843,0.105957 -0.403489,0.75 c -0.221919,0.4125 -0.419094,0.766402 -0.438167,0.786449 -0.01907,0.02005 -0.311468,-0.0907 -0.649766,-0.246094 -0.338301,-0.155398 -0.65925,-0.282542 -0.713221,-0.282542 -0.05397,0 -0.207969,0.08213 -0.342214,0.182504 -0.134246,0.100378 -0.418106,0.269363 -0.630801,0.375523 -0.343569,0.171482 -0.386682,0.207344 -0.386381,0.321402 1.87e-4,0.07061 -0.02408,0.397328 -0.05392,0.726039 l -0.05425,0.597657 -0.6140525,-0.0089 c -0.3377287,-0.0049 -0.7362741,-0.0165 -0.8856565,-0.02584 z m 1.1387919,-2.311158 c 0.444333,-0.0704 0.766145,-0.250536 1.170801,-0.655356 0.405101,-0.405263 0.577691,-0.695468 0.682577,-1.147728 0.0873,-0.376432 0.09861,-1.235908 0.02014,-1.530915 C 11.943354,10.568674 11.698876,10.179269 11.338891,9.8164511 10.723494,9.1962119 10.312384,9.0370758 9.4404534,9.0815883 8.6528734,9.1217946 8.268544,9.2854261 7.7544876,9.7994027 7.2129535,10.340853 7.0541547,10.77592 7.0551358,11.715446 c 9.76e-4,0.934366 0.1482524,1.323097 0.7208128,1.902557 0.3499394,0.354157 0.6595167,0.54952 1.0027942,0.632828 0.298873,0.07253 0.9853534,0.08103 1.3882732,0.01719 z"
       id="path4208"
       inkscape:connector-curvature="0" />
  </g>
</svg>
