<?xml version="1.0" encoding="UTF-8" standalone="no"?>
<!-- Created with Inkscape (http://www.inkscape.org/) -->

<svg
   xmlns:dc="http://purl.org/dc/elements/1.1/"
   xmlns:cc="http://creativecommons.org/ns#"
   xmlns:rdf="http://www.w3.org/1999/02/22-rdf-syntax-ns#"
   xmlns:svg="http://www.w3.org/2000/svg"
   xmlns="http://www.w3.org/2000/svg"
   xmlns:sodipodi="http://sodipodi.sourceforge.net/DTD/sodipodi-0.dtd"
   xmlns:inkscape="http://www.inkscape.org/namespaces/inkscape"
   width="24px"
   height="24px"
   viewBox="0 0 24 24"
   version="1.1"
   id="SVGRoot"
   inkscape:version="0.92.4 (5da689c313, 2019-01-14)"
   sodipodi:docname="centroid.svg">
  <defs
     id="defs3328" />
  <sodipodi:namedview
     id="base"
     pagecolor="#ffffff"
     bordercolor="#666666"
     borderopacity="1.0"
     inkscape:pageopacity="0.0"
     inkscape:pageshadow="2"
     inkscape:zoom="10.666667"
     inkscape:cx="5.8531789"
     inkscape:cy="3.0979877"
     inkscape:document-units="px"
     inkscape:current-layer="layer1"
     showgrid="false"
     inkscape:window-width="1920"
     inkscape:window-height="995"
     inkscape:window-x="0"
     inkscape:window-y="28"
     inkscape:window-maximized="1"
     inkscape:grid-bbox="true" />
  <metadata
     id="metadata3331">
    <rdf:RDF>
      <cc:Work
         rdf:about="">
        <dc:format>image/svg+xml</dc:format>
        <dc:type
           rdf:resource="http://purl.org/dc/dcmitype/StillImage" />
        <dc:title></dc:title>
      </cc:Work>
    </rdf:RDF>
  </metadata>
  <g
     inkscape:label="Layer 1"
     inkscape:groupmode="layer"
     id="layer1">
    <path
       style="fill:#000000;stroke-width:0.11313201"
       d="M 4.4460115,21.546357 C 3.8830735,21.345631 3.3169422,20.738136 3.1593014,20.165635 3.0931572,19.925419 3.0387558,18.744753 3.0384107,17.541932 L 3.037782,15.354985 H 4.1080368 5.178291 v 2.101741 2.101742 h 2.0841796 2.0841802 v 1.079272 1.079273 l -2.2250032,-0.0049 C 5.5020557,21.708395 4.7740307,21.663337 4.4460115,21.546376 Z M 15.768177,20.63774 v -1.079272 h 2.084181 2.084179 v -2.101742 -2.101741 h 1.070255 1.070254 l -6.76e-4,2.186947 c -3.38e-4,1.244909 -0.05422,2.381592 -0.125027,2.638816 -0.159433,0.579115 -0.823498,1.248774 -1.397772,1.409549 -0.255074,0.0714 -1.38226,0.125722 -2.616768,0.126083 l -2.168626,6.33e-4 z M 11.479199,16.229415 C 10.303256,15.892993 9.2301935,14.952152 8.6905436,13.784376 8.4383295,13.238596 8.3923257,12.98233 8.3908263,12.114778 8.3892473,11.186758 8.4235579,11.019243 8.7542117,10.34193 9.194558,9.4399227 10.001254,8.6419155 10.8993,8.2199449 11.445803,7.9631568 11.697602,7.9169858 12.559783,7.91547 c 0.920265,-0.00162 1.08638,0.033008 1.758034,0.3664476 0.894471,0.4440569 1.68581,1.2575501 2.104254,2.1631634 0.255155,0.552217 0.300159,0.802921 0.300159,1.672086 0,0.869165 -0.045,1.119868 -0.300159,1.672085 -0.680677,1.47315 -2.061939,2.448532 -3.594909,2.538555 -0.494096,0.02901 -1.042549,-0.01103 -1.347963,-0.09839 z m 2.329572,-2.416095 c 0.644822,-0.526295 0.853583,-1.001087 0.806366,-1.833938 -0.03284,-0.579296 -0.1002,-0.780808 -0.375743,-1.124117 -0.521897,-0.650256 -0.99272,-0.860776 -1.818613,-0.81316 -0.574456,0.03312 -0.774283,0.101044 -1.114724,0.378908 -0.644822,0.526295 -0.853583,1.001087 -0.806366,1.833938 0.03284,0.579296 0.100201,0.780808 0.375743,1.124117 0.521897,0.650257 0.992721,0.860776 1.818613,0.813159 0.574456,-0.03312 0.774283,-0.101042 1.114724,-0.378907 z M 3.0384107,6.6924012 C 3.0387685,5.4474923 3.0926249,4.310809 3.1634394,4.0535847 3.3228712,3.4744705 3.9869347,2.8048112 4.5612103,2.6440362 4.8162853,2.572625 5.9434703,2.5183143 7.1779768,2.5179535 L 9.3466508,2.51732 V 3.5965927 4.6758654 H 7.2624706 5.178291 V 6.7776069 8.8793484 H 4.1080368 3.037782 Z M 19.936537,6.7776069 V 4.6758654 H 17.852358 15.768177 V 3.5965927 2.51732 l 2.168674,6.363e-4 c 1.234507,3.634e-4 2.361692,0.054671 2.616766,0.1260824 0.574276,0.1607752 1.23834,0.8304344 1.397772,1.4095486 0.07081,0.2572244 0.124672,1.3939077 0.125028,2.6388165 l 6.29e-4,2.1869446 h -1.070254 -1.070255 z"
       id="path3895"
       inkscape:connector-curvature="0" />
    <path
       style="opacity:0.70099996;fill:#cccccc;fill-opacity:0.95266271;stroke:#000000;stroke-width:0.09637795;stroke-linejoin:round;stroke-miterlimit:19.5;stroke-dasharray:none;stroke-opacity:1;paint-order:normal"
       d="M 12.223125,8.0126691 C 10.68872,7.9482636 9.4236766,9.1922228 8.760148,10.469243 8.3031362,11.319095 8.4250638,12.34836 8.5388601,13.269078 c 0.6631748,1.924147 2.7506879,3.504913 4.8405759,2.931152 1.797058,-0.422918 3.435046,-2.108655 3.260997,-4.041461 C 16.850366,10.429293 15.499828,8.895585 14.02177,8.1886334 13.466776,7.9182104 12.816762,8.0427825 12.223125,8.0126691 Z m 0.512696,2.0189209 c 1.699742,-0.049703 2.570425,2.319534 1.422546,3.486145 -0.675896,0.874223 -2.074121,0.949823 -2.919617,0.303772 -1.079208,-0.871176 -1.045771,-2.753813 0.154907,-3.505554 0.385081,-0.282323 0.884412,-0.295418 1.342164,-0.284363 z"
       id="path3897"
       inkscape:connector-curvature="0" />
    <path
       style="opacity:0.70099996;fill:#148cd2;fill-opacity:1;stroke:#000000;stroke-width:0.09637795;stroke-linejoin:round;stroke-miterlimit:19.5;stroke-dasharray:none;stroke-opacity:1;paint-order:normal"
       d="m 15.809429,3.5432477 c -0.008,0.5755064 -0.183849,1.3188581 0.65625,1.0462646 1.15625,0 2.3125,0 3.46875,0 0,1.40625 0,2.8125 0,4.21875 0.6875,0 1.375,0 2.0625,0 C 21.952261,7.2033047 22.100502,5.5732835 21.862346,3.9841657 21.465092,3.2355168 20.742277,2.4915531 19.814937,2.630866 18.480615,2.5637552 17.144659,2.5393051 15.809429,2.496983 c 0,0.3487549 0,0.6975098 0,1.0462647 z"
       id="path3899"
       inkscape:connector-curvature="0" />
    <path
       style="opacity:0.70099996;fill:#148cd2;fill-opacity:1;stroke:#000000;stroke-width:0.09637795;stroke-linejoin:round;stroke-miterlimit:19.5;stroke-dasharray:none;stroke-opacity:1;paint-order:normal"
       d="m 19.934429,17.480137 c 0,0.703125 0,1.40625 0,2.109375 -1.375,0 -2.75,0 -4.125,0 0,0.6875 0,1.375 0,2.0625 1.590662,-0.04805 3.208675,0.106708 4.78125,-0.155456 0.809319,-0.310382 1.525732,-1.13088 1.36879,-2.03351 0.01713,-1.364095 0.03425,-2.728189 0.05138,-4.092284 -0.692139,0 -1.384277,0 -2.076416,0 0,0.703125 0,1.40625 0,2.109375 z"
       id="path3901"
       inkscape:connector-curvature="0" />
    <path
       style="opacity:0.70099996;fill:#148cd2;fill-opacity:1;stroke:#000000;stroke-width:0.09637795;stroke-linejoin:round;stroke-miterlimit:19.5;stroke-dasharray:none;stroke-opacity:1;paint-order:normal"
       d="m 3.0835988,17.691075 c 0.072384,0.894031 -0.042332,1.840755 0.2149659,2.701355 0.4154372,0.710213 1.1196117,1.314552 1.9969482,1.210876 1.3477665,0.05056 2.6967606,0.0371 4.045166,0.04871 0,-0.6875 0,-1.375 0,-2.0625 -1.40625,0 -2.8125,0 -4.21875,0 0,-1.40625 0,-2.8125 0,-4.21875 -0.6968384,0 -1.3936767,0 -2.0905151,0 0.017395,0.773438 0.03479,1.546875 0.052185,2.320313 z"
       id="path3903"
       inkscape:connector-curvature="0" />
    <path
       style="opacity:0.70099996;fill:#148cd2;fill-opacity:1;stroke:#000000;stroke-width:0.09637795;stroke-linejoin:round;stroke-miterlimit:19.5;stroke-dasharray:none;stroke-opacity:1;paint-order:normal"
       d="M 7.0320852,2.5563092 C 5.9938738,2.6653493 4.7941528,2.4150845 3.894756,3.0549054 2.8699824,3.9080974 3.1876147,5.3627452 3.0823171,6.5318951 c -0.017029,0.7587891 -0.034058,1.5175782 -0.051086,2.2763672 0.6956787,0 1.3913574,0 2.0870362,0 0.016846,-1.390625 0.033691,-2.78125 0.050537,-4.171875 1.390625,-0.016846 2.78125,-0.033691 4.171875,-0.050537 0,-0.6962281 0,-1.3924561 0,-2.0886842 -0.7695312,0.019714 -1.5390625,0.039429 -2.3085941,0.059143 z"
       id="path3905"
       inkscape:connector-curvature="0" />
  </g>
</svg>
