<?xml version="1.0" encoding="UTF-8" standalone="no"?>
<!-- Created with Inkscape (http://www.inkscape.org/) -->

<svg
   xmlns:dc="http://purl.org/dc/elements/1.1/"
   xmlns:cc="http://creativecommons.org/ns#"
   xmlns:rdf="http://www.w3.org/1999/02/22-rdf-syntax-ns#"
   xmlns:svg="http://www.w3.org/2000/svg"
   xmlns="http://www.w3.org/2000/svg"
   xmlns:sodipodi="http://sodipodi.sourceforge.net/DTD/sodipodi-0.dtd"
   xmlns:inkscape="http://www.inkscape.org/namespaces/inkscape"
   width="24px"
   height="24px"
   viewBox="0 0 24 24"
   version="1.1"
   id="SVGRoot"
   inkscape:version="0.92.4 (5da689c313, 2019-01-14)"
   sodipodi:docname="flip_vertical.svg">
  <defs
     id="defs815" />
  <sodipodi:namedview
     id="base"
     pagecolor="#ffffff"
     bordercolor="#666666"
     borderopacity="1.0"
     inkscape:pageopacity="0.0"
     inkscape:pageshadow="2"
     inkscape:zoom="21.333333"
     inkscape:cx="20.843244"
     inkscape:cy="9.5902792"
     inkscape:document-units="px"
     inkscape:current-layer="layer1"
     showgrid="false"
     inkscape:window-width="1920"
     inkscape:window-height="995"
     inkscape:window-x="0"
     inkscape:window-y="28"
     inkscape:window-maximized="1"
     inkscape:grid-bbox="true" />
  <metadata
     id="metadata818">
    <rdf:RDF>
      <cc:Work
         rdf:about="">
        <dc:format>image/svg+xml</dc:format>
        <dc:type
           rdf:resource="http://purl.org/dc/dcmitype/StillImage" />
        <dc:title></dc:title>
      </cc:Work>
    </rdf:RDF>
  </metadata>
  <g
     inkscape:label="Layer 1"
     inkscape:groupmode="layer"
     id="layer1">
    <path
       style="fill:#000000;fill-opacity:0.63905323;stroke-width:0.04069562"
       d="m 1.9275029,20.261616 c 0.040714,-0.09855 2.006428,-4.145892 4.368253,-8.994093 2.584257,-5.3047971 4.3456771,-8.8740481 4.4234331,-8.9634231 0.09911,-0.113914 0.154771,-0.145698 0.238934,-0.136431 0.251297,0.02767 0.234665,-0.580065 0.247494,9.0435771 0.0083,6.262628 -0.0015,8.869443 -0.0343,9.056541 -0.08866,0.506062 -0.430839,0.937987 -0.918123,1.158925 L 9.9814349,21.54993 h -3.741913 -3.741913 l -0.167236,-0.08527 c -0.331732,-0.169146 -0.48206,-0.41867 -0.478849,-0.794819 0.0011,-0.125973 0.03527,-0.309673 0.07598,-0.408224 z m 4.79282,-0.276353 h 2.780304 l -0.0026,-5.714004 -0.0026,-5.7140051 -0.08253,0.158448 c -0.176718,0.339289 -5.468681,11.2118691 -5.470725,11.2398521 -0.0012,0.01634 1.248964,0.02971 2.778132,0.02971 z M 12.848515,2.4429069 c 0.06779,-0.326694 0.241554,-0.379131 0.45258,-0.136576 0.11347,0.130425 8.649314,17.5778371 8.807595,18.0028781 0.08418,0.226048 0.07465,0.572718 -0.02125,0.772838 -0.0928,0.193663 -0.33893,0.376952 -0.596058,0.443877 -0.13335,0.03471 -1.117731,0.04383 -3.817081,0.03539 l -3.63739,-0.01138 -0.271759,-0.123218 c -0.299683,-0.135879 -0.572422,-0.37622 -0.736928,-0.649391 -0.233345,-0.387481 -0.22355,0.03346 -0.219374,-9.427434 0.0021,-4.8039231 0.01997,-8.8120641 0.03966,-8.9069801 z"
       id="path1382"
       inkscape:connector-curvature="0" />
    <path
       style="opacity:0.70099996;fill:#148cd2;fill-opacity:1;stroke:#333333;stroke-width:0;stroke-linejoin:round;stroke-miterlimit:4;stroke-dasharray:none"
       d="M 22.161646,20.845235 C 21.735162,19.200701 20.825145,17.718742 20.135847,16.171485 17.916204,11.688234 15.763005,7.170261 13.451801,2.7330333 13.340015,2.5948495 13.091285,1.9448581 12.897508,2.282905 c -0.09562,5.9266429 -0.06039,11.857561 0.01072,17.785076 -0.01351,1.001652 1.107667,1.549552 2.001586,1.432397 2.213868,-0.01194 4.440219,0.09969 6.645905,-0.113304 0.27248,-0.03734 0.630401,-0.222169 0.605932,-0.541839 z"
       id="path1384"
       inkscape:connector-curvature="0" />
    <path
       style="opacity:0.70099996;fill:#999999;fill-opacity:1;stroke:#333333;stroke-width:0;stroke-linejoin:round;stroke-miterlimit:4;stroke-dasharray:none"
       d="M 11.167256,8.6222875 C 11.127486,6.5578645 11.231136,4.4813017 11.05959,2.4245331 11.04584,2.1374264 10.794871,2.1603747 10.741953,2.4316431 8.3822514,6.8684985 6.2796864,11.43766 4.0512731,15.941339 c -0.694785,1.534376 -1.559946,3.003276 -2.136887,4.584264 -0.186778,0.708842 0.657712,1.030999 1.225072,0.952524 2.2603353,0.02005 4.5303753,0.10116 6.7857933,-0.04981 0.7792116,-0.17957 1.3319956,-0.945877 1.1758116,-1.745992 0.06568,-3.686167 0.06433,-7.37339 0.06619,-11.0600385 z M 9.5709424,20.008701 c -1.839481,-0.04247 -3.697628,0.09391 -5.5257573,-0.10437 -0.227509,-0.236803 0.249474,-0.622346 0.281624,-0.889083 1.7175793,-3.493454 3.3815403,-7.027238 5.1578903,-10.4832315 0.164496,3.6723025 0.05174,7.3584995 0.08624,11.0361325 0,0.146851 0,0.293701 0,0.440552 z"
       id="path1983"
       inkscape:connector-curvature="0" />
  </g>
</svg>
