<?xml version="1.0" encoding="UTF-8" standalone="no"?>
<!-- Created with Inkscape (http://www.inkscape.org/) -->

<svg
   xmlns:dc="http://purl.org/dc/elements/1.1/"
   xmlns:cc="http://creativecommons.org/ns#"
   xmlns:rdf="http://www.w3.org/1999/02/22-rdf-syntax-ns#"
   xmlns:svg="http://www.w3.org/2000/svg"
   xmlns="http://www.w3.org/2000/svg"
   xmlns:sodipodi="http://sodipodi.sourceforge.net/DTD/sodipodi-0.dtd"
   xmlns:inkscape="http://www.inkscape.org/namespaces/inkscape"
   width="24px"
   height="24px"
   viewBox="0 0 24 24"
   version="1.1"
   id="SVGRoot"
   inkscape:version="0.92.4 (5da689c313, 2019-01-14)"
   sodipodi:docname="drawing-2.svg">
  <defs
     id="defs900" />
  <sodipodi:namedview
     id="base"
     pagecolor="#ffffff"
     bordercolor="#666666"
     borderopacity="1.0"
     inkscape:pageopacity="0.0"
     inkscape:pageshadow="2"
     inkscape:zoom="21.333333"
     inkscape:cx="10.911646"
     inkscape:cy="16.722485"
     inkscape:document-units="px"
     inkscape:current-layer="g1515"
     showgrid="false"
     inkscape:window-width="1920"
     inkscape:window-height="995"
     inkscape:window-x="0"
     inkscape:window-y="28"
     inkscape:window-maximized="1"
     inkscape:grid-bbox="true"
     showguides="false" />
  <metadata
     id="metadata903">
    <rdf:RDF>
      <cc:Work
         rdf:about="">
        <dc:format>image/svg+xml</dc:format>
        <dc:type
           rdf:resource="http://purl.org/dc/dcmitype/StillImage" />
        <dc:title></dc:title>
      </cc:Work>
    </rdf:RDF>
  </metadata>
  <g
     inkscape:label="Layer 1"
     inkscape:groupmode="layer"
     id="layer1">
    <g
       transform="matrix(0.67908436,0,0,0.69230775,-20.985307,-1.2787846)"
       id="g1515">
      <path
         style="fill:#cccccc;fill-opacity:0.72156864;stroke-width:0.05266878"
         d="M 37.366581,28.681599 34.948674,26.43389 v -0.232953 c 0,-0.177652 0.0376,-0.279969 0.158388,-0.431002 0.188882,-0.236177 6.855896,-6.419148 7.050803,-6.538896 0.148751,-0.09139 0.474205,-0.108994 0.602393,-0.03258 0.06467,0.03855 0.757668,-0.579042 3.287796,-2.930029 2.67301,-2.483751 3.19735,-2.993646 3.154678,-3.067766 -0.0795,-0.138093 -0.06043,-0.415421 0.03809,-0.553999 0.128815,-0.181188 6.779968,-6.3789043 7.034028,-6.5544899 0.16247,-0.112286 0.272534,-0.1472396 0.463638,-0.1472396 h 0.250593 l 2.417908,2.2477086 2.417907,2.2477089 v 0.232953 c 0,0.177645 -0.0376,0.279975 -0.158376,0.431002 -0.214417,0.268128 -21.141822,19.697965 -21.292577,19.768877 -0.06563,0.03087 -0.225098,0.05613 -0.354385,0.05613 h -0.235067 z m 3.205438,-0.54937 c 0.151432,-0.03019 0.290214,-0.07728 0.308406,-0.104643 0.04294,-0.06459 -2.737056,-2.654573 -2.806495,-2.614679 -0.07559,0.04343 -0.175575,0.445484 -0.174574,0.701973 0.0051,1.319803 1.293548,2.292296 2.672663,2.017349 z m 1.686834,-1.624819 c 0.185351,-0.837604 -0.292272,-1.756832 -1.127984,-2.170908 -0.418298,-0.207256 -0.974548,-0.294582 -1.377636,-0.216276 -0.51485,0.100019 -0.514938,0.09813 0.02904,0.62396 0.912191,0.881757 2.294914,2.120337 2.349777,2.104822 0.03004,-0.0085 0.0871,-0.162216 0.126799,-0.341598 z m 3.03147,-5.638085 c 0.169631,-0.07972 5.600062,-5.120488 5.694761,-5.286129 0.120318,-0.210452 0.09989,-0.519802 -0.04451,-0.67403 l -0.122909,-0.131274 -3.187319,2.964611 -3.187319,2.964611 0.14926,0.109144 c 0.165052,0.12069 0.499974,0.146152 0.698039,0.05307 z m 11.832631,-8.137297 c 0.16301,-0.03222 0.303787,-0.08143 0.312838,-0.109361 0.01653,-0.05102 -1.316744,-1.337202 -2.264363,-2.184373 -0.565651,-0.5056913 -0.563615,-0.5056094 -0.671207,-0.027 -0.18364,0.816896 0.376599,1.802299 1.23154,2.166153 0.500374,0.212953 0.881565,0.255309 1.391192,0.154581 z M 58.813012,11.16561 C 58.973227,10.550325 58.785923,9.8794448 58.312437,9.3726669 57.941625,8.9757833 57.245943,8.6899362 56.645913,8.6879133 c -0.272135,-9.177e-4 -0.7082,0.0917 -0.753655,0.160072 -0.04307,0.064784 2.76202,2.6555807 2.815524,2.6004337 0.02375,-0.02448 0.0711,-0.15174 0.10523,-0.282809 z"
         id="path938"
         inkscape:connector-curvature="0" />
      <path
         style="fill:#4bb3eb;stroke-width:0.05266878"
         d="m 39.39258,28.395205 c -0.862735,-0.229525 -1.603215,-0.978431 -1.768499,-1.788624 -0.259154,-1.270324 0.584467,-2.469023 1.94795,-2.767839 1.693489,-0.371137 3.334191,1.080564 3.027033,2.678332 -0.268482,1.396583 -1.751489,2.265224 -3.206484,1.878131 z m 1.414782,-0.265256 c 0.112667,-0.03379 0.204849,-0.08632 0.204849,-0.116748 0,-0.03042 -0.652617,-0.66072 -1.450261,-1.400659 -1.613776,-1.49703 -1.533831,-1.453421 -1.66021,-0.905613 -0.307486,1.33283 0.860391,2.596039 2.318388,2.507637 0.210311,-0.01275 0.474567,-0.05083 0.587234,-0.08462 z m 1.454193,-1.393981 c 0.109858,-0.29233 0.10298,-0.90917 -0.01369,-1.228205 -0.313639,-0.857616 -1.168877,-1.447537 -2.109672,-1.455196 -0.358851,-0.0029 -0.850267,0.0968 -0.908475,0.184352 -0.0174,0.02617 0.167598,0.237335 0.411106,0.469251 0.243508,0.231916 0.442742,0.443326 0.442742,0.4698 0,0.02647 -0.06145,0.101803 -0.136566,0.1674 -0.225466,0.196905 -0.18075,0.336919 0.230698,0.722358 0.413126,0.387012 0.548081,0.423551 0.785002,0.212544 0.184586,-0.164396 0.22445,-0.146331 0.731246,0.331379 0.209706,0.197671 0.406362,0.351786 0.437012,0.342479 0.03065,-0.0093 0.08942,-0.10658 0.130602,-0.216162 z M 43.67159,19.96987 c -0.381054,-0.35502 -0.692826,-0.669069 -0.692826,-0.697888 0,-0.05794 2.314144,-2.220565 2.406903,-2.249308 0.03195,-0.0099 0.17773,0.07579 0.323963,0.190411 0.146232,0.114626 0.317353,0.20841 0.380268,0.20841 0.21044,0 1.204357,-0.956331 1.204357,-1.158813 0,-0.02567 -0.100389,-0.163878 -0.223086,-0.307132 -0.122698,-0.143254 -0.214871,-0.283373 -0.20483,-0.311376 0.03066,-0.08551 2.358118,-2.234398 2.420071,-2.234398 0.03185,0 0.375409,0.295804 0.763459,0.657341 l 0.705546,0.657341 -0.471896,0.447151 c -1.222681,1.158564 -5.773764,5.368142 -5.842037,5.403659 -0.05493,0.02858 -0.276101,-0.145344 -0.769892,-0.605398 z m 12.431246,-6.941789 c -1.011288,-0.204221 -1.781035,-0.998645 -1.938066,-2.000194 -0.05489,-0.350064 -0.05042,-0.457472 0.03265,-0.78504 0.456678,-1.8007655 2.776498,-2.4673545 4.201308,-1.2072253 0.687983,0.6084652 0.952769,1.4354693 0.722608,2.2569163 -0.248991,0.888653 -0.94494,1.52724 -1.890152,1.734359 -0.421126,0.09228 -0.675935,0.09255 -1.128351,0.0012 z m 0.947786,-0.232304 c 0.188239,-0.03047 0.386908,-0.08582 0.441487,-0.122995 0.09158,-0.06237 0.06445,-0.100728 -0.351434,-0.496983 -0.247868,-0.236167 -0.450668,-0.451055 -0.450668,-0.477529 0,-0.02647 0.06145,-0.101803 0.136566,-0.1674 0.225466,-0.196905 0.18075,-0.336919 -0.230698,-0.722358 -0.412545,-0.386467 -0.565654,-0.429088 -0.779892,-0.217095 -0.07056,0.06982 -0.151598,0.126953 -0.180076,0.126953 -0.02848,0 -0.258003,-0.187121 -0.510054,-0.415825 -0.274361,-0.248946 -0.4773,-0.3966977 -0.505678,-0.3681641 -0.153339,0.1541761 -0.246096,0.7531241 -0.173671,1.1214211 0.132117,0.671842 0.59239,1.252243 1.221009,1.539684 0.520212,0.237871 0.853146,0.286084 1.383109,0.200291 z m 1.768028,-1.429946 c 0.238283,-0.733294 0.05638,-1.4655939 -0.509342,-2.0505241 -0.513175,-0.5305963 -1.341325,-0.7768774 -2.102236,-0.625178 -0.589289,0.1174837 -0.6362,0.043166 0.974186,1.5433461 0.795968,0.741497 1.474225,1.348176 1.507238,1.348176 0.03301,0 0.09158,-0.09712 0.130154,-0.21582 z"
         id="path932"
         inkscape:connector-curvature="0" />
      <path
         style="fill:#39b3f7;stroke-width:0.05266878"
         d="m 39.39258,28.395205 c -0.862735,-0.229525 -1.603215,-0.978431 -1.768499,-1.788624 -0.259154,-1.270324 0.584467,-2.469023 1.94795,-2.767839 1.693489,-0.371137 3.334191,1.080564 3.027033,2.678332 -0.268482,1.396583 -1.751489,2.265224 -3.206484,1.878131 z m 1.524149,-0.308853 c 0.855771,-0.298861 1.41731,-1.059404 1.425351,-1.930482 0.01083,-1.172798 -1.001079,-2.112779 -2.258519,-2.097988 -1.708975,0.0201 -2.753527,1.667921 -1.951591,3.078705 0.512988,0.902462 1.730847,1.317823 2.784759,0.949765 z m -1.280515,-1.463713 c -1.266575,-1.173227 -1.420838,-1.3336 -1.390583,-1.445661 0.04614,-0.170895 0.471412,-0.602339 0.712877,-0.723222 l 0.196342,-0.0983 0.434262,0.401327 0.434263,0.401326 -0.1611,0.170567 c -0.250061,0.264757 -0.217861,0.367942 0.250148,0.801598 0.467612,0.433287 0.577367,0.462773 0.860963,0.2313 l 0.183482,-0.149759 0.41931,0.392093 c 0.23062,0.215652 0.41931,0.430277 0.41931,0.476944 0,0.107005 -0.53266,0.643741 -0.762178,0.768011 l -0.172482,0.09339 z m 4.053074,-6.737899 -0.680811,-0.634411 0.352294,-0.330433 c 0.193762,-0.181738 0.377217,-0.330432 0.407678,-0.330432 0.07346,0 1.340747,1.176615 1.340747,1.244814 0,0.05147 -0.658896,0.684873 -0.712433,0.684873 -0.01467,0 -0.333028,-0.285485 -0.707475,-0.634411 z m 0.8764,-0.749448 c -0.687258,-0.638676 -0.803393,-0.802644 -0.594925,-0.839965 0.120487,-0.02157 1.52692,1.286674 1.487058,1.383241 -0.07241,0.175426 -0.206858,0.09356 -0.892133,-0.543276 z m 0.255865,-0.279989 C 44.469,18.526709 44.180546,18.234962 44.180546,18.206976 c 0,-0.02799 0.269049,-0.300219 0.597885,-0.604961 l 0.597885,-0.554076 0.247605,0.212169 c 0.198055,0.16971 0.288243,0.212168 0.450677,0.212168 0.184119,0 0.253058,-0.04647 0.738677,-0.497904 0.48562,-0.451435 0.535606,-0.515522 0.535606,-0.686681 0,-0.151 -0.04567,-0.23484 -0.228234,-0.418953 l -0.228234,-0.230176 0.596031,-0.555799 c 0.327817,-0.305689 0.621417,-0.555799 0.652443,-0.555799 0.07212,0 1.338426,1.178077 1.338426,1.245168 0,0.06638 -3.890109,3.680613 -3.961553,3.680613 -0.03036,0 -0.343653,-0.268849 -0.696207,-0.597442 z m 4.114253,-3.782511 c -0.683079,-0.634791 -0.803049,-0.802706 -0.599539,-0.839139 0.11262,-0.02016 1.527587,1.295408 1.490337,1.385646 -0.07095,0.171873 -0.208736,0.08734 -0.890798,-0.546507 z m 0.255865,-0.279989 c -0.352554,-0.328594 -0.641008,-0.620611 -0.641008,-0.648928 0,-0.02832 0.160079,-0.198974 0.355731,-0.379236 l 0.355729,-0.327751 0.694904,0.645989 0.694903,0.645988 -0.352567,0.33069 c -0.193913,0.18188 -0.378245,0.33069 -0.409627,0.33069 -0.03138,0 -0.345512,-0.268849 -0.698065,-0.597442 z m 6.911165,-1.764722 c -1.011288,-0.204221 -1.781035,-0.998645 -1.938066,-2.000194 -0.05489,-0.350064 -0.05042,-0.457472 0.03265,-0.78504 0.456678,-1.8007655 2.776498,-2.4673545 4.201308,-1.2072253 0.687983,0.6084652 0.952769,1.4354693 0.722608,2.2569163 -0.248991,0.888653 -0.94494,1.52724 -1.890152,1.734359 -0.421126,0.09228 -0.675935,0.09255 -1.128351,0.0012 z m 1.333534,-0.327863 c 0.833973,-0.272485 1.399995,-0.974423 1.477343,-1.832093 C 58.96343,10.316841 58.7516,9.7726151 58.309308,9.3153069 57.695685,8.6808528 56.692815,8.4788964 55.810631,8.8121272 c -0.772043,0.291627 -1.264886,0.9084986 -1.383263,1.7313738 -0.07616,0.529438 0.207989,1.252923 0.655471,1.668907 0.271399,0.252295 0.792594,0.513109 1.170156,0.585565 0.31774,0.06098 0.826085,0.01898 1.183375,-0.09776 z m -0.26674,-0.598059 -0.41915,-0.393555 0.160956,-0.16584 c 0.25007,-0.257658 0.217076,-0.36715 -0.241076,-0.800018 -0.460381,-0.434973 -0.580305,-0.466682 -0.870178,-0.230085 L 55.6167,10.66242 55.184985,10.258726 54.753269,9.8550315 54.856836,9.6762561 c 0.136219,-0.2351379 0.583036,-0.6204509 0.7701,-0.6640961 0.137076,-0.031982 0.254265,0.064288 1.567786,1.287936 l 1.419637,1.322502 -0.101809,0.162465 c -0.136183,0.217318 -0.712372,0.710651 -0.830006,0.710651 -0.05157,0 -0.282381,-0.1771 -0.512914,-0.393555 z"
         id="path930"
         inkscape:connector-curvature="0" />
      <path
         style="fill:#867a64;stroke-width:0.05266878"
         d="m 39.39258,28.395205 c -0.862735,-0.229525 -1.603215,-0.978431 -1.768499,-1.788624 -0.259154,-1.270324 0.584467,-2.469023 1.94795,-2.767839 1.693489,-0.371137 3.334191,1.080564 3.027033,2.678332 -0.268482,1.396583 -1.751489,2.265224 -3.206484,1.878131 z m 1.524149,-0.308853 c 0.855771,-0.298861 1.41731,-1.059404 1.425351,-1.930482 0.01083,-1.172798 -1.001079,-2.112779 -2.258519,-2.097988 -1.708975,0.0201 -2.753527,1.667921 -1.951591,3.078705 0.512988,0.902462 1.730847,1.317823 2.784759,0.949765 z m 3.648959,-8.95106 c -0.687258,-0.638676 -0.803393,-0.802644 -0.594925,-0.839965 0.120487,-0.02157 1.52692,1.286674 1.487058,1.383241 -0.07241,0.175426 -0.206858,0.09356 -0.892133,-0.543276 z m 4.370118,-4.0625 c -0.683079,-0.634791 -0.803049,-0.802706 -0.599539,-0.839139 0.11262,-0.02016 1.527587,1.295408 1.490337,1.385646 -0.07095,0.171873 -0.208736,0.08734 -0.890798,-0.546507 z m 7.16703,-2.044711 c -1.011288,-0.204221 -1.781035,-0.998645 -1.938066,-2.000194 -0.05489,-0.350064 -0.05042,-0.457472 0.03265,-0.78504 0.456678,-1.8007655 2.776498,-2.4673545 4.201308,-1.2072253 0.687983,0.6084652 0.952769,1.4354693 0.722608,2.2569163 -0.248991,0.888653 -0.94494,1.52724 -1.890152,1.734359 -0.421126,0.09228 -0.675935,0.09255 -1.128351,0.0012 z m 1.333534,-0.327863 c 0.833973,-0.272485 1.399995,-0.974423 1.477343,-1.832093 C 58.96343,10.316841 58.7516,9.7726151 58.309308,9.3153069 57.695685,8.6808528 56.692815,8.4788964 55.810631,8.8121272 c -0.772043,0.291627 -1.264886,0.9084986 -1.383263,1.7313738 -0.07616,0.529438 0.207989,1.252923 0.655471,1.668907 0.271399,0.252295 0.792594,0.513109 1.170156,0.585565 0.31774,0.06098 0.826085,0.01898 1.183375,-0.09776 z"
         id="path928"
         inkscape:connector-curvature="0" />
      <path
         style="fill:#6c6d6a;stroke-width:0.05266878"
         d="m 39.344031,28.287294 c -0.650992,-0.191936 -1.260968,-0.720268 -1.502589,-1.301472 -0.176763,-0.425189 -0.205785,-1.106328 -0.0648,-1.520789 0.467236,-1.373542 2.149642,-1.997746 3.518196,-1.305317 0.333753,0.168865 0.811249,0.631825 0.987953,0.957878 0.422588,0.779761 0.313951,1.727749 -0.28153,2.45665 -0.224193,0.274426 -0.744746,0.601388 -1.136588,0.713896 -0.457725,0.131425 -1.073179,0.131083 -1.520643,-8.43e-4 z m 1.278936,-0.05277 c 0.149408,-0.02979 0.326452,-0.09834 0.393432,-0.152344 0.06698,-0.054 0.140395,-0.09819 0.163145,-0.09819 0.112816,0 0.610695,-0.435113 0.826962,-0.722709 0.288143,-0.383177 0.357484,-0.550021 0.403999,-0.972083 0.06582,-0.597262 -0.178432,-1.191573 -0.681311,-1.657727 -0.807508,-0.748536 -1.920372,-0.857396 -2.815889,-0.275451 -0.324478,0.21086 -0.796296,0.67362 -0.796296,0.78101 0,0.02115 -0.0479,0.08979 -0.106443,0.152541 -0.147086,0.157655 -0.240644,0.623718 -0.204888,1.020657 0.117946,1.309328 1.424752,2.201915 2.817289,1.924292 z m 3.952155,-9.079896 c -0.338807,-0.324805 -0.64381,-0.618152 -0.677784,-0.65188 -0.04607,-0.04574 -0.044,-0.08123 0.0082,-0.139649 0.03846,-0.04308 0.08996,-0.07832 0.114438,-0.07832 0.02448,0 0.356685,0.289568 0.73823,0.643483 0.557151,0.516807 0.68303,0.659262 0.639431,0.723633 -0.02986,0.04408 -0.08853,0.08311 -0.130371,0.08672 -0.04185,0.0036 -0.353291,-0.259178 -0.692099,-0.583984 z m 4.370118,-4.0625 c -0.338808,-0.324805 -0.64381,-0.618152 -0.677785,-0.65188 -0.04607,-0.04574 -0.044,-0.08123 0.0082,-0.139649 0.03846,-0.04308 0.08766,-0.07832 0.109328,-0.07832 0.02167,0 0.352899,0.291007 0.736061,0.646681 0.544506,0.505444 0.685275,0.663487 0.644541,0.723632 -0.02867,0.04232 -0.08636,0.07991 -0.128202,0.08352 -0.04185,0.0036 -0.353291,-0.259178 -0.692098,-0.583984 z m 7.094965,-2.168965 C 55.603528,12.814 55.25094,12.616004 54.921552,12.294984 c -0.334495,-0.325998 -0.490928,-0.583715 -0.608057,-1.001751 -0.325353,-1.161186 0.390433,-2.3530557 1.633363,-2.7197486 0.504047,-0.1487051 1.247672,-0.1063714 1.726425,0.098284 1.847712,0.7898502 1.91288,3.2224976 0.109253,4.0782686 -0.535366,0.254016 -1.167494,0.316827 -1.742331,0.173126 z m 1.151522,-0.09533 c 0.384022,-0.09299 0.965886,-0.465392 1.250949,-0.800639 0.117636,-0.138345 0.213883,-0.268839 0.213883,-0.289987 0,-0.02115 0.04753,-0.08939 0.105621,-0.151661 0.05809,-0.06227 0.131837,-0.226847 0.16388,-0.365738 0.298669,-1.2946161 -0.661419,-2.5093243 -2.070002,-2.6189764 -0.426995,-0.03324 -0.928349,0.053733 -1.097942,0.1904655 -0.0675,0.054423 -0.141342,0.09895 -0.164092,0.09895 -0.115521,0 -0.613323,0.4386065 -0.840149,0.7402442 -0.626011,0.8324807 -0.508907,1.8670087 0.296309,2.6176757 0.599348,0.558746 1.368319,0.766888 2.141543,0.579666 z"
         id="path926"
         inkscape:connector-curvature="0" />
      <path
         style="fill:none;stroke:#000000;stroke-width:0.29168798;stroke-linecap:butt;stroke-linejoin:round;stroke-opacity:1;stroke-miterlimit:4;stroke-dasharray:none"
         d="m 34.948674,26.433889 4.837435,4.393855 h 0.542959 L 61.715653,10.946599 v -0.50474 l -4.726571,-4.4969236 -0.529563,0.015479 -7.213298,6.7200506 0.01384,0.603093 1.92663,1.745711 -0.05122,0.574091 -5.837277,5.423607 h -0.591423 l -1.863788,-1.777975 -0.568472,-0.06853 -7.19604,6.694661 z"
         id="path1546"
         inkscape:connector-curvature="0" />
    </g>
  </g>
</svg>
