<?xml version="1.0" encoding="UTF-8" standalone="no"?>
<!-- Created with Inkscape (http://www.inkscape.org/) -->

<svg
   xmlns:dc="http://purl.org/dc/elements/1.1/"
   xmlns:cc="http://creativecommons.org/ns#"
   xmlns:rdf="http://www.w3.org/1999/02/22-rdf-syntax-ns#"
   xmlns:svg="http://www.w3.org/2000/svg"
   xmlns="http://www.w3.org/2000/svg"
   xmlns:sodipodi="http://sodipodi.sourceforge.net/DTD/sodipodi-0.dtd"
   xmlns:inkscape="http://www.inkscape.org/namespaces/inkscape"
   width="24px"
   height="24px"
   viewBox="0 0 24 24"
   version="1.1"
   id="SVGRoot"
   sodipodi:docname="look.svg"
   inkscape:version="0.92.4 (5da689c313, 2019-01-14)">
  <defs
     id="defs2682" />
  <sodipodi:namedview
     id="base"
     pagecolor="#ffffff"
     bordercolor="#666666"
     borderopacity="1.0"
     inkscape:pageopacity="0.0"
     inkscape:pageshadow="2"
     inkscape:zoom="15.084945"
     inkscape:cx="18.584365"
     inkscape:cy="6.9778511"
     inkscape:document-units="px"
     inkscape:current-layer="layer1"
     showgrid="false"
     inkscape:window-width="1920"
     inkscape:window-height="995"
     inkscape:window-x="0"
     inkscape:window-y="28"
     inkscape:window-maximized="1"
     inkscape:grid-bbox="true" />
  <metadata
     id="metadata2685">
    <rdf:RDF>
      <cc:Work
         rdf:about="">
        <dc:format>image/svg+xml</dc:format>
        <dc:type
           rdf:resource="http://purl.org/dc/dcmitype/StillImage" />
      </cc:Work>
    </rdf:RDF>
  </metadata>
  <g
     inkscape:label="Layer 1"
     inkscape:groupmode="layer"
     id="layer1">
    <path
       style="fill:#000000;stroke-width:0.1298397;fill-opacity:0.68639052"
       d="m 21.437774,21.649114 c 0.354154,-0.356975 0.439708,-0.545123 0.439708,-0.967006 0,-0.983278 -0.08742,-0.992676 -0.949344,-0.102054 -0.438104,0.452693 -0.933804,0.914798 -1.101555,1.0269 -0.438365,0.292943 -0.232385,0.48537 0.519556,0.48537 0.568974,0 0.707878,-0.0564 1.091635,-0.44321 z m -2.205293,-0.832726 c 0.608978,-0.444774 1.293628,-1.120594 1.577261,-1.556922 0.203512,-0.313073 0.187726,-0.332813 -2.176463,-2.7216 -2.029808,-2.050926 -2.400559,-2.373155 -2.510789,-2.182178 -0.234895,0.406966 -1.155915,1.384403 -1.639057,1.739459 l -0.475127,0.349165 2.356522,2.372692 2.356524,2.37269 z m -8.800319,-4.075809 c 2.351151,-0.240639 4.672494,-1.894704 5.690029,-4.054412 0.478687,-1.016008 0.836425,-2.428925 0.836425,-3.3035342 0,-0.8746103 -0.357738,-2.2875274 -0.836425,-3.3035364 C 15.786022,5.3655825 15.423928,4.8715515 14.731174,4.1812345 13.183744,2.6392485 11.659626,2.016079 9.4435533,2.0192738 3.969011,2.0271821 0.5168801,7.9380621 3.095863,12.88808 c 1.3867951,2.661772 4.2548755,4.167882 7.336299,3.852499 z M 7.3586902,14.089793 C 6.3274181,13.590389 5.4029295,12.643378 4.8982246,11.569385 4.5171356,10.758442 4.4831831,10.57955 4.4831831,9.3826328 c 0,-1.1939665 0.034518,-1.3769925 0.4105311,-2.177035 C 5.4160123,6.0943137 6.2645506,5.2390167 7.3670528,4.7125567 8.1693309,4.3294587 8.3343776,4.2987562 9.5915452,4.2987562 c 1.2026088,0 1.4424988,0.039961 2.0974118,0.3493609 2.045533,0.9663773 3.333596,3.3512309 2.961137,5.4825549 -0.352294,2.015942 -1.692379,3.611466 -3.543633,4.219103 -0.350748,0.115126 -0.982835,0.165015 -1.7735663,0.139981 -1.0275434,-0.03253 -1.3506077,-0.09798 -1.9742045,-0.399963 z"
       id="path3260"
       inkscape:connector-curvature="0"
       sodipodi:nodetypes="sscsssccsssccccssscscsscsscsscsccc" />
    <path
       style="opacity:0.70099996;fill:#148cd2;fill-opacity:0.90196078;stroke:#148cd2;stroke-width:0.06511106;stroke-linejoin:round;stroke-miterlimit:19.5;stroke-dasharray:none;stroke-opacity:1;paint-order:normal"
       d="M 9.3435085,2.0791893 C 6.3265654,2.0080887 3.5396928,4.2089172 2.6492928,7.0297237 1.9459398,9.199207 2.235492,11.702864 3.5662014,13.581906 5.0427545,15.797536 7.8252891,17.042481 10.472029,16.68689 12.6135,16.445345 14.586671,15.120485 15.725885,13.31704 16.81106,11.524612 17.261784,9.2592259 16.533944,7.2506138 15.913861,5.129194 14.258534,3.3553223 12.216905,2.5101047 11.305464,2.1551913 10.3149,2.0637164 9.3435085,2.0791893 Z m 0.4418318,2.1757962 c 2.0019907,-0.08831 3.7827477,1.3844572 4.5294607,3.1560579 1.176619,2.5604191 -0.287644,5.8729696 -2.915093,6.8488086 -1.133322,0.35789 -2.3836066,0.332197 -3.5345133,0.06694 C 6.2654924,13.751143 4.9933968,12.330452 4.5535632,10.701693 4.4199521,9.7740374 4.3721797,8.7973445 4.5998303,7.8814358 5.0711132,6.474185 6.0856565,5.2339289 7.4776924,4.6502483 8.1889873,4.270102 8.9961152,4.236389 9.7853403,4.2549855 Z"
       id="path3307"
       inkscape:connector-curvature="0" />
    <path
       style="opacity:0.70099996;fill:#808080;fill-opacity:0.90196078;stroke:#148cd2;stroke-width:0.06511106;stroke-linejoin:round;stroke-miterlimit:19.5;stroke-dasharray:none;stroke-opacity:1;paint-order:normal"
       d="m 16.219194,14.35738 c -0.637637,0.713655 -1.274213,1.471545 -2.073088,2.026894 -0.09611,0.198515 0.349923,0.382721 0.434635,0.569444 1.373633,1.397319 2.735426,2.820356 4.159451,4.15977 0.802631,-0.542067 1.627219,-1.171689 2.089957,-2.037503 -0.129439,-0.501051 -0.639187,-0.816564 -0.949821,-1.21287 -1.175139,-1.179173 -2.281058,-2.444842 -3.587702,-3.482665 -0.02246,-0.01031 -0.04712,-0.02839 -0.07343,-0.02307 z"
       id="path3309"
       inkscape:connector-curvature="0" />
    <path
       style="opacity:0.70099996;fill:#808080;fill-opacity:0.90196078;stroke:#148cd2;stroke-width:0.06511106;stroke-linejoin:round;stroke-miterlimit:19.5;stroke-dasharray:none;stroke-opacity:1;paint-order:normal"
       d="m 21.676353,19.978896 c -0.713229,0.597071 -1.433755,1.228569 -2.040342,1.922157 0.327389,0.239479 0.81886,0.1622 1.202945,0.10153 0.808006,-0.245291 1.226741,-1.238764 0.921372,-1.995929 -0.02176,-0.02085 -0.05412,-0.03186 -0.08397,-0.02776 z"
       id="path3311"
       inkscape:connector-curvature="0" />
  </g>
</svg>
