<?xml version="1.0" encoding="UTF-8" standalone="no"?>
<!-- Created with Inkscape (http://www.inkscape.org/) -->

<svg
   xmlns:dc="http://purl.org/dc/elements/1.1/"
   xmlns:cc="http://creativecommons.org/ns#"
   xmlns:rdf="http://www.w3.org/1999/02/22-rdf-syntax-ns#"
   xmlns:svg="http://www.w3.org/2000/svg"
   xmlns="http://www.w3.org/2000/svg"
   xmlns:sodipodi="http://sodipodi.sourceforge.net/DTD/sodipodi-0.dtd"
   xmlns:inkscape="http://www.inkscape.org/namespaces/inkscape"
   width="24px"
   height="24px"
   viewBox="0 0 24 24"
   version="1.1"
   id="SVGRoot"
   inkscape:version="0.92.4 (5da689c313, 2019-01-14)"
   sodipodi:docname="roi_h.svg">
  <defs
     id="defs815" />
  <sodipodi:namedview
     id="base"
     pagecolor="#ffffff"
     bordercolor="#666666"
     borderopacity="1.0"
     inkscape:pageopacity="0.0"
     inkscape:pageshadow="2"
     inkscape:zoom="7.5424723"
     inkscape:cx="16.152205"
     inkscape:cy="34.629304"
     inkscape:document-units="px"
     inkscape:current-layer="layer1"
     showgrid="false"
     inkscape:window-width="1920"
     inkscape:window-height="995"
     inkscape:window-x="0"
     inkscape:window-y="28"
     inkscape:window-maximized="1"
     inkscape:grid-bbox="true" />
  <metadata
     id="metadata818">
    <rdf:RDF>
      <cc:Work
         rdf:about="">
        <dc:format>image/svg+xml</dc:format>
        <dc:type
           rdf:resource="http://purl.org/dc/dcmitype/StillImage" />
        <dc:title></dc:title>
      </cc:Work>
    </rdf:RDF>
  </metadata>
  <g
     inkscape:label="Layer 1"
     inkscape:groupmode="layer"
     id="layer1">
    <path
       style="fill:#808080;fill-opacity:1;stroke-width:0.07597783"
       d="M 5.3783662,20.413893 C 4.8638836,20.252773 4.4024284,19.850988 4.132987,19.329552 4.000086,19.072355 3.993563,18.745976 3.993563,12.352789 c 0,-6.3931894 0.00646,-6.7195667 0.139424,-6.9767639 C 4.3276084,4.9993836 4.6887982,4.6214146 5.0418882,4.4249009 L 5.3414104,4.258201 h 7.0387616 7.038759 l 0.30463,0.167873 c 0.167546,0.09233 0.427345,0.3077153 0.577332,0.4786332 0.523929,0.5970505 0.509881,0.3762499 0.486661,7.6485398 l -0.02077,6.506485 -0.163057,0.313624 c -0.08968,0.172493 -0.298277,0.439391 -0.463542,0.593107 -0.578011,0.537617 -0.312361,0.520218 -7.829761,0.512832 -3.7094017,-0.0037 -6.8288255,-0.03307 -6.9320526,-0.06541 z M 18.547083,18.628027 c 0.244236,-0.08765 0.375393,-0.356047 0.267221,-0.546827 -0.03141,-0.05541 -0.548149,-0.825133 -1.148291,-1.710493 -1.463868,-2.159569 -1.518762,-2.183335 -2.594113,-1.123084 -0.534,0.526504 -0.658371,0.61282 -0.882989,0.61282 -0.143793,0 -0.314984,-0.02115 -0.380423,-0.047 -0.06544,-0.02585 -0.8307,-1.005876 -1.70058,-2.177829 -0.86988,-1.171956 -1.684959,-2.243574 -1.811285,-2.381375 -0.273847,-0.29872 -0.555407,-0.326593 -0.778758,-0.07709 -0.2252547,0.251628 -3.3902092,6.807331 -3.3902092,7.022283 0,0.18054 0.1611504,0.377975 0.3744014,0.458701 0.229102,0.08673 11.8000778,0.0578 12.0450258,-0.0301 z m -3.105503,-7.79518 c 0.411307,-0.125112 1.031628,-0.763748 1.153152,-1.1871981 0.21641,-0.7540772 0.06439,-1.3718734 -0.475113,-1.9306884 -0.516585,-0.535086 -1.116496,-0.694068 -1.839182,-0.4874009 -0.360605,0.1031226 -0.952218,0.6490574 -1.123122,1.0364051 -0.15441,0.349968 -0.179696,0.9344337 -0.05968,1.3794275 0.101003,0.3744898 0.612799,0.9546338 1.004783,1.1389678 0.3477,0.163509 0.899243,0.184302 1.33916,0.05048 z"
       id="path2009"
       inkscape:connector-curvature="0" />
    <rect
       style="opacity:0.70099996;fill:#333333;fill-opacity:0.90196078;stroke:#000000;stroke-width:1.08895266;stroke-linejoin:round;stroke-miterlimit:4;stroke-dasharray:none;stroke-opacity:1"
       id="rect1373-3"
       width="2.3604381"
       height="21.63669"
       x="11.07228"
       y="-23.052721"
       transform="rotate(90)" />
    <rect
       style="opacity:0.70099996;fill:#148cd2;fill-opacity:0.90196079;stroke:#148cd2;stroke-width:1.08895266;stroke-linejoin:round;stroke-miterlimit:4;stroke-dasharray:none;stroke-opacity:0.99408288"
       id="rect1373"
       width="2.3604381"
       height="21.63669"
       x="11.072279"
       y="-23.052721"
       transform="rotate(90)" />
  </g>
</svg>
