<?xml version="1.0" encoding="UTF-8" standalone="no"?>
<!-- Created with Inkscape (http://www.inkscape.org/) -->

<svg
   xmlns:osb="http://www.openswatchbook.org/uri/2009/osb"
   xmlns:dc="http://purl.org/dc/elements/1.1/"
   xmlns:cc="http://creativecommons.org/ns#"
   xmlns:rdf="http://www.w3.org/1999/02/22-rdf-syntax-ns#"
   xmlns:svg="http://www.w3.org/2000/svg"
   xmlns="http://www.w3.org/2000/svg"
   xmlns:xlink="http://www.w3.org/1999/xlink"
   xmlns:sodipodi="http://sodipodi.sourceforge.net/DTD/sodipodi-0.dtd"
   xmlns:inkscape="http://www.inkscape.org/namespaces/inkscape"
   width="24px"
   height="24px"
   viewBox="0 0 24 24"
   version="1.1"
   id="SVGRoot"
   inkscape:version="0.92.4 (5da689c313, 2019-01-14)"
   sodipodi:docname="temperature.svg">
  <defs
     id="defs815">
    <linearGradient
       inkscape:collect="always"
       id="linearGradient1559">
      <stop
         style="stop-color:#cccccc;stop-opacity:1;"
         offset="0"
         id="stop1555" />
      <stop
         style="stop-color:#cccccc;stop-opacity:0;"
         offset="1"
         id="stop1557" />
    </linearGradient>
    <linearGradient
       id="linearGradient1490"
       osb:paint="solid">
      <stop
         style="stop-color:#cccccc;stop-opacity:1;"
         offset="0"
         id="stop1488" />
    </linearGradient>
    <radialGradient
       inkscape:collect="always"
       xlink:href="#linearGradient1559"
       id="radialGradient1561"
       cx="11.867964"
       cy="12.156138"
       fx="11.867964"
       fy="12.156138"
       r="12.462758"
       gradientTransform="matrix(1,0,0,0.9804964,0,0.23708851)"
       gradientUnits="userSpaceOnUse" />
  </defs>
  <sodipodi:namedview
     id="base"
     pagecolor="#ffffff"
     bordercolor="#666666"
     borderopacity="1.0"
     inkscape:pageopacity="0.0"
     inkscape:pageshadow="2"
     inkscape:zoom="22.627417"
     inkscape:cx="-7.3452834"
     inkscape:cy="17.204792"
     inkscape:document-units="px"
     inkscape:current-layer="layer1"
     showgrid="false"
     inkscape:window-width="1920"
     inkscape:window-height="995"
     inkscape:window-x="0"
     inkscape:window-y="28"
     inkscape:window-maximized="1"
     inkscape:grid-bbox="true" />
  <metadata
     id="metadata818">
    <rdf:RDF>
      <cc:Work
         rdf:about="">
        <dc:format>image/svg+xml</dc:format>
        <dc:type
           rdf:resource="http://purl.org/dc/dcmitype/StillImage" />
        <dc:title></dc:title>
      </cc:Work>
    </rdf:RDF>
  </metadata>
  <g
     inkscape:label="Layer 1"
     inkscape:groupmode="layer"
     id="layer1">
    <path
       style="fill:#000000;stroke-width:0.04460194"
       d="M 10.560421,23.575026 C 8.896917,23.341277 7.401685,22.19791 6.7437195,20.656484 6.4527727,19.97488 6.3578979,19.509858 6.3541507,18.747058 6.3484188,17.58072 6.5779006,16.793133 7.2032979,15.83272 7.4562477,15.44427 8.0514481,14.841375 8.4276508,14.592535 L 8.7162587,14.401639 8.7293477,8.552517 C 8.7439123,2.0462542 8.7184937,2.587805 9.0396497,1.9394126 9.2197887,1.5757166 9.7232111,1.0749034 10.094985,0.88955029 10.817601,0.52927688 11.6471,0.53450082 12.339116,0.90368654 12.903774,1.204923 13.325123,1.6893444 13.554395,2.3008805 l 0.100361,0.2677026 0.01206,5.9096394 0.01206,5.9096405 0.275666,0.17976 c 0.592819,0.386576 1.287834,1.18562 1.630776,1.874869 0.401547,0.807033 0.575887,1.801886 0.478089,2.728153 -0.120943,1.14546 -0.556171,2.084295 -1.359297,2.932153 -0.684864,0.723008 -1.534356,1.2049 -2.488014,1.411371 -0.378788,0.082 -1.271636,0.114827 -1.655692,0.06086 z m 1.65569,-1.069813 c 1.065273,-0.290968 2.016026,-1.086902 2.50294,-2.095365 0.302366,-0.62624 0.388157,-1.008311 0.388511,-1.7302 4.16e-4,-0.712386 -0.08876,-1.137441 -0.360948,-1.721808 -0.332126,-0.713053 -0.917992,-1.346759 -1.631537,-1.764772 L 12.725174,14.964651 12.703037,8.8340241 C 12.683023,3.2903932 12.673999,2.688337 12.608723,2.5461062 12.323663,1.9249449 11.733064,1.5608808 11.094826,1.6128918 10.549041,1.6573734 10.077712,1.9961861 9.8425368,2.5131062 L 9.7150731,2.7932781 9.7022453,8.8826785 9.6894206,14.97208 9.3731667,15.151841 c -1.3823356,0.785732 -2.1250713,2.115408 -2.0584331,3.685098 0.080235,1.889983 1.3994184,3.411021 3.2560474,3.754272 0.346247,0.06401 1.27358,0.01555 1.645337,-0.086 z M 10.55613,21.755074 C 10.385705,21.716953 10.057998,21.593426 9.8278919,21.480571 9.0767154,21.112151 8.4553077,20.358159 8.2046912,19.511042 8.1048362,19.173521 8.0925595,18.280048 8.1827717,17.915665 c 0.2614922,-1.056232 1.0420614,-1.90349 2.0741323,-2.25134 l 0.320501,-0.108021 4.17e-4,-3.022232 4.16e-4,-3.0222306 h 0.619417 0.619415 l 0.01138,3.0180706 0.01138,3.01807 0.28773,0.09867 c 1.060027,0.363512 1.795379,1.140872 2.084545,2.203627 0.115315,0.423815 0.135496,1.124282 0.04322,1.500252 -0.274843,1.119842 -1.061414,1.984474 -2.11546,2.325402 -0.446738,0.144496 -1.137289,0.179003 -1.583757,0.07915 z M 9.5972971,19.134188 c 0.1413338,-0.10217 0.2727059,-0.382594 0.2727059,-0.582114 0,-0.504692 0.410027,-1.037622 0.934714,-1.214885 0.386689,-0.130642 0.570336,-0.335561 0.570336,-0.636399 0,-0.206528 -0.12092,-0.43313 -0.286601,-0.537086 -0.473979,-0.297395 -1.5153407,0.226164 -2.0461781,1.028746 -0.3964224,0.599357 -0.539595,1.539652 -0.2782077,1.827137 0.2328177,0.256062 0.5728532,0.302831 0.8332309,0.114601 z m 5.9387809,-6.566412 v -0.494341 h 1.859179 1.859181 v 0.494341 0.494343 h -1.859181 -1.859179 z m 0,-2.112189 V 9.9612441 h 1.084521 1.084521 v 0.4943429 0.494343 h -1.084521 -1.084521 z m 0,-2.157132 V 7.8041136 h 1.859179 1.859181 V 8.298455 8.792798 h -1.859181 -1.859179 z m 0,-2.1134739 V 5.691922 h 1.086019 1.086019 l -0.01257,0.4831079 -0.01256,0.4831073 -1.073453,0.00996 -1.073456,0.00996 z m 0,-2.1558476 V 3.534792 h 1.859179 1.859181 v 0.4943415 0.4943429 h -1.859181 -1.859179 z"
       id="path1464"
       inkscape:connector-curvature="0" />
    <path
       style="fill:#e6e6e6;fill-opacity:0.98039216;stroke:#333333;stroke-width:0.025;stroke-linejoin:round;stroke-miterlimit:4;stroke-dasharray:none"
       d="m 11.159702,1.6597039 c -0.825021,-0.00337 -1.4823269,0.8076017 -1.3894039,1.6108398 -0.048543,3.902094 -0.012348,7.8048993 -0.023682,11.7072753 -1.3857321,0.662754 -2.463706,2.08864 -2.3782959,3.67273 -0.069178,1.419913 0.7706051,2.757291 1.9804498,3.457772 1.740541,1.034372 4.216733,0.319563 5.186824,-1.447799 0.614155,-0.975175 0.655961,-2.21257 0.339196,-3.294153 -0.361552,-1.051574 -1.198487,-1.875752 -2.175293,-2.375 -0.04033,-4.12028 0.0076,-8.2427128 -0.114502,-12.3614503 C 12.432288,2.0357022 11.75582,1.6320171 11.159702,1.6597039 Z m 0.05566,7.8345947 c 0.436498,-0.051081 0.816766,-0.045932 0.65625,0.5 0.0261,1.8430144 -0.0572,3.6925294 0.05811,5.5314944 0.80349,0.31833 1.659809,0.806403 2.037383,1.647304 0.603098,1.169008 0.456621,2.728051 -0.500884,3.671788 -1.048042,1.216554 -3.062024,1.31271 -4.2479248,0.247436 -0.5100416,-0.437997 -0.9068065,-1.048981 -1.0654297,-1.691772 0.038714,-0.576563 -0.075721,-1.188924 0.05541,-1.743884 0.4149257,-1.001463 1.2620635,-1.887846 2.3508395,-2.113416 0,-2.016317 0,-4.032634 0,-6.0489504 0.21875,0 0.4375,0 0.65625,0 z"
       id="path1466"
       inkscape:connector-curvature="0" />
    <rect
       style="fill:url(#radialGradient1561);fill-opacity:1;stroke:#333333;stroke-width:0;stroke-linejoin:round;stroke-miterlimit:4;stroke-dasharray:none;opacity:0.701"
       id="rect1486"
       width="24.925514"
       height="24.439377"
       x="-0.59479332"
       y="-0.063550092" />
    <path
       style="fill:#148cd2;fill-opacity:0.98039216;stroke:#333333;stroke-width:0.025;stroke-linejoin:round;stroke-miterlimit:4;stroke-dasharray:none"
       d="m 10.621616,12.562658 c 0,1.001953 0,2.003906 0,3.005859 -1.1207349,0.321857 -2.193376,1.216685 -2.3945308,2.407715 -0.00433,0.534464 -0.04469,1.087463 0.015957,1.611337 0.5076065,1.325183 1.8921168,2.440452 3.3661988,2.161211 1.772263,-0.203022 3.088015,-2.150172 2.563523,-3.867152 -0.281158,-1.139895 -1.250055,-2.010487 -2.363648,-2.313111 0,-2.003906 0,-4.007812 0,-6.0117184 -0.395833,0 -0.791666,0 -1.1875,0 0,1.0019534 0,2.0039064 0,3.0058594 z m 0.256104,3.498169 c 0.570265,0.08144 0.689482,0.991683 0.134644,1.199951 -0.579475,0.235545 -1.1088787,0.704041 -1.1353764,1.370606 -0.029283,0.489948 -0.6237895,0.828233 -1.0213623,0.488769 -0.4195766,-0.346421 -0.177373,-0.975498 -0.082764,-1.419189 0.3286141,-0.833558 1.1588166,-1.647931 2.1048587,-1.640137 z"
       id="path1472"
       inkscape:connector-curvature="0" />
    <path
       style="fill:#4d4d4d;fill-opacity:0.98039216;stroke:#333333;stroke-width:0.025;stroke-linejoin:round;stroke-miterlimit:4;stroke-dasharray:none"
       d="M 10.984165,0.71463553 C 10.045515,0.67706207 9.2694087,1.4711334 8.9272806,2.2793328 8.6907789,3.6309975 8.7981961,5.0179289 8.7551614,6.3848015 c -0.00921,2.671904 -0.00656,5.3438325 -0.01001,8.0157475 -1.5244432,0.996395 -2.5496579,2.810659 -2.3485107,4.654907 0.092951,1.765462 1.2628991,3.359744 2.8529053,4.095337 1.000863,0.494523 2.185536,0.483576 3.255414,0.255069 1.569407,-0.478188 2.883968,-1.739461 3.331988,-3.33002 0.505943,-1.560607 0.134022,-3.343608 -0.943603,-4.580323 C 14.53923,15.045184 14.081392,14.696912 13.621616,14.36234 V 2.5111443 C 13.248589,1.5483649 12.369333,0.61395104 11.256628,0.71377335 c -0.09082,-9.7822e-4 -0.181642,6.0968e-4 -0.272463,8.6218e-4 z m 0.175537,0.94506837 c 0.662873,0.040782 1.527949,0.4834705 1.486916,1.2192317 0.125603,2.9587364 0.06114,5.9228349 0.10139,8.8837544 0.0056,1.058242 0.01112,2.116483 0.01667,3.174724 1.103847,0.610463 2.066951,1.613555 2.297852,2.890258 0.130937,0.983153 0.07816,2.041449 -0.495972,2.886963 -0.710266,1.160019 -2.017167,2.00741 -3.411255,1.903809 C 9.3386194,22.69217 7.6492014,21.222715 7.3807717,19.438146 7.1175602,18.096111 7.515053,16.608332 8.5860941,15.713659 8.9051543,15.412496 9.2651052,15.159557 9.6528665,14.95487 9.6920972,10.908039 9.6098685,6.8389844 9.7150731,2.7932781 9.7376637,2.0715186 10.488426,1.6405108 11.159702,1.6597039 Z"
       id="path1474"
       inkscape:connector-curvature="0"
       sodipodi:nodetypes="ccccccccccccccccccccccccc" />
    <path
       style="fill:#4d4d4d;fill-opacity:0.98039216;stroke:#333333;stroke-width:0.025;stroke-linejoin:round;stroke-miterlimit:4;stroke-dasharray:none"
       d="m 15.559116,12.588049 c -0.173826,0.559243 0.277874,0.49296 0.6875,0.46875 1,0 2,0 3,0 -0.09411,-0.280886 0.206019,-0.956019 -0.1875,-0.9375 -1.166666,0 -2.333333,0 -3.5,0 0,0.15625 0,0.3125 0,0.46875 z"
       id="path1476"
       inkscape:connector-curvature="0" />
    <path
       style="fill:#4d4d4d;fill-opacity:0.98039216;stroke:#333333;stroke-width:0.025;stroke-linejoin:round;stroke-miterlimit:4;stroke-dasharray:none"
       d="m 15.559116,10.463049 c -0.173826,0.559243 0.277874,0.49296 0.6875,0.46875 0.479167,0 0.958334,0 1.4375,0 -0.09411,-0.280886 0.206019,-0.9560193 -0.1875,-0.9375004 -0.645833,0 -1.291666,0 -1.9375,0 0,0.1562504 0,0.3125004 0,0.4687504 z"
       id="path1478"
       inkscape:connector-curvature="0" />
    <path
       style="fill:#4d4d4d;fill-opacity:0.98039216;stroke:#333333;stroke-width:0.025;stroke-linejoin:round;stroke-miterlimit:4;stroke-dasharray:none"
       d="m 15.559116,8.2755486 c -0.173826,0.5592432 0.277874,0.4929602 0.6875,0.46875 1,0 2,0 3,0 -0.09411,-0.2808852 0.206019,-0.9560189 -0.1875,-0.9375 -1.166666,0 -2.333333,0 -3.5,0 0,0.15625 0,0.3125 0,0.46875 z"
       id="path1480"
       inkscape:connector-curvature="0" />
    <path
       style="fill:#4d4d4d;fill-opacity:0.98039216;stroke:#333333;stroke-width:0.025;stroke-linejoin:round;stroke-miterlimit:4;stroke-dasharray:none"
       d="m 15.559116,6.1817986 c -0.179733,0.5755671 0.360769,0.4308978 0.75,0.4375 0.458334,0 0.916667,0 1.375,0 -0.07761,-0.318224 0.224364,-1.0160302 -0.3125,-0.875 -0.604166,0 -1.208333,0 -1.8125,0 0,0.1458333 0,0.2916667 0,0.4375 z"
       id="path1482"
       inkscape:connector-curvature="0" />
    <path
       style="fill:#4d4d4d;fill-opacity:0.98039216;stroke:#333333;stroke-width:0.025;stroke-linejoin:round;stroke-miterlimit:4;stroke-dasharray:none"
       d="m 15.559116,4.0255486 c -0.173826,0.5592432 0.277874,0.4929602 0.6875,0.46875 1,0 2,0 3,0 -0.09411,-0.2808852 0.206019,-0.9560189 -0.1875,-0.9375 -1.166666,0 -2.333333,0 -3.5,0 0,0.15625 0,0.3125 0,0.46875 z"
       id="path1484"
       inkscape:connector-curvature="0" />
  </g>
</svg>
