<?xml version="1.0" encoding="UTF-8" standalone="no"?>
<svg
   xmlns:dc="http://purl.org/dc/elements/1.1/"
   xmlns:cc="http://creativecommons.org/ns#"
   xmlns:rdf="http://www.w3.org/1999/02/22-rdf-syntax-ns#"
   xmlns:svg="http://www.w3.org/2000/svg"
   xmlns="http://www.w3.org/2000/svg"
   xmlns:sodipodi="http://sodipodi.sourceforge.net/DTD/sodipodi-0.dtd"
   xmlns:inkscape="http://www.inkscape.org/namespaces/inkscape"
   height="96"
   viewBox="0 0 96 96"
   width="96"
   version="1.1"
   id="svg6"
   sodipodi:docname="vector-out.svg"
   inkscape:version="0.92.4 (5da689c313, 2019-01-14)">
  <metadata
     id="metadata12">
    <rdf:RDF>
      <cc:Work
         rdf:about="">
        <dc:format>image/svg+xml</dc:format>
        <dc:type
           rdf:resource="http://purl.org/dc/dcmitype/StillImage" />
        <dc:title />
      </cc:Work>
    </rdf:RDF>
  </metadata>
  <defs
     id="defs10" />
  <sodipodi:namedview
     pagecolor="#ffffff"
     bordercolor="#666666"
     borderopacity="1"
     objecttolerance="10"
     gridtolerance="10"
     guidetolerance="10"
     inkscape:pageopacity="0"
     inkscape:pageshadow="2"
     inkscape:window-width="1920"
     inkscape:window-height="1016"
     id="namedview8"
     showgrid="false"
     inkscape:zoom="3.0786656"
     inkscape:cx="-86.531143"
     inkscape:cy="61.690717"
     inkscape:window-x="0"
     inkscape:window-y="27"
     inkscape:window-maximized="1"
     inkscape:current-layer="svg6" />
  <circle
     style="opacity:1;fill:#e6e6e6;fill-opacity:1;stroke:#000000;stroke-width:0;stroke-linecap:round;stroke-miterlimit:10;stroke-dasharray:none;stroke-opacity:1;paint-order:stroke markers fill"
     id="path1411"
     cx="48"
     cy="48"
     r="48"
     inkscape:export-xdpi="96.640541"
     inkscape:export-ydpi="96.640541" />
  <path
     d="m 48.000001,2.884358 c -24.858719,0 -45.1156428,20.256924 -45.1156428,45.115641 0,24.858719 20.2569238,45.115643 45.1156428,45.115643 24.858717,0 45.115641,-20.256924 45.115641,-45.115643 0,-24.858717 -20.256924,-45.115641 -45.115641,-45.115641 z m 0,81.208155 c -19.895998,0 -36.092514,-16.196516 -36.092514,-36.092514 0,-19.895998 16.196516,-36.092513 36.092514,-36.092513 19.895998,0 36.092513,16.196515 36.092513,36.092513 0,19.895998 -16.196515,36.092514 -36.092513,36.092514 z M 61.534692,47.999999 c 0,7.489197 -6.045496,13.534693 -13.534691,13.534693 -7.489197,0 -13.534693,-6.045496 -13.534693,-13.534693 0,-7.489195 6.045496,-13.534691 13.534693,-13.534691 7.489195,0 13.534691,6.045496 13.534691,13.534691 z"
     id="path2"
     inkscape:connector-curvature="0"
     style="stroke-width:4.51156425;fill:#000000;fill-opacity:1"
     inkscape:export-xdpi="96.640541"
     inkscape:export-ydpi="96.640541" />
  <path
     d="M -6.13877,-6.13877 H 102.13877 V 102.13877 H -6.13877 Z"
     id="path4"
     inkscape:connector-curvature="0"
     style="fill:none;stroke-width:4.51156425"
     inkscape:export-xdpi="96.640541"
     inkscape:export-ydpi="96.640541" />
</svg>
