<svg width="364" height="56" viewBox="0 0 364 56" fill="none" xmlns="http://www.w3.org/2000/svg">
<path d="M43.6029 22.7649C50.4304 26.849 51.7283 34.0938 46.5451 38.8871C44.9756 40.3461 42.9395 41.5508 40.6228 42.4525C41.2327 38.8282 39.8088 35.032 37.2282 31.7371L37.2144 31.7194L29.339 21.8961L29.2561 21.805C26.0992 18.3344 22.6279 16.1367 19.0463 15.541C15.3322 14.9231 11.9365 16.1179 9.52834 18.569C9.10034 18.9957 8.68366 19.4657 8.28285 19.9726L8.3158 15.392C8.50505 7.56324 14.8357 5.53057 21.6282 9.63945L43.6029 22.7649Z" fill="#ffffff"/>
<path d="M23.8625 46.8351C24.7818 45.2485 25.3085 43.4144 25.3127 41.4604C25.3255 35.431 20.3571 30.5431 14.2155 30.5431C11.7961 30.5431 9.55555 31.3016 7.72761 32.5897C7.83462 28.1282 10.0561 23.646 12.4018 21.3172C15.4033 18.245 20.6898 18.3123 26.2583 24.4342L34.0428 34.1442C38.9078 40.3558 36.9442 46.1638 30.2035 47.0832C28.3403 47.3373 26.1398 47.2368 23.8625 46.8351Z" fill="#ffffff"/>
<path d="M14.1775 48.4354C18.1013 48.4354 21.2888 45.3126 21.297 41.4604C21.3052 37.6083 18.131 34.4855 14.2072 34.4855C10.2833 34.4855 7.09582 37.6083 7.08764 41.4604C7.07945 45.3126 10.2537 48.4354 14.1775 48.4354Z" fill="#ffffff"/>
<path d="M100.569 28.1555L97.8756 34.2966V46.9076L93.4778 42.4115C90.7659 45.4089 86.9729 46.9076 82.0987 46.9076C78.4706 46.9076 75.3188 46.0852 72.6435 44.4403C69.9683 42.7588 67.8977 40.4011 66.4317 37.3671C65.0025 34.2966 64.2878 30.696 64.2878 26.5655C64.2878 22.3618 65.0208 18.7064 66.4867 15.5993C67.9893 12.4557 70.0965 10.0249 72.8085 8.30683C75.5204 6.5888 78.6904 5.72979 82.3186 5.72979C86.13 5.72979 89.3366 6.5888 91.9386 8.30683L95.8966 6.00394V19.7116L92.1035 14.5027C89.245 10.5183 86.1666 8.52616 82.8683 8.52616C80.816 8.52616 79.0203 9.23896 77.4811 10.6646C75.9785 12.0902 74.8241 14.1372 74.0178 16.8056C73.2116 19.4375 72.8085 22.5628 72.8085 26.1816C72.8085 31.7378 73.7613 36.0694 75.667 39.1765C77.5727 42.2836 80.2113 43.8371 83.5829 43.8371C85.1588 43.8371 86.6064 43.5081 87.9257 42.8502C89.245 42.1922 90.3445 41.2601 91.224 40.0538V33.529L85.7818 28.1555H100.569Z" fill="#ffffff"/>
<path d="M102.205 46.3045L104.789 40.5473V23.2208L99.5668 17.2442H111.771V26.8396C112.504 23.7691 113.713 21.3565 115.399 19.602C117.084 17.8474 119.045 16.9701 121.281 16.9701C122.71 16.9701 123.864 17.3539 124.744 18.1215C125.623 18.8892 126.063 19.8944 126.063 21.1372C126.063 22.3069 125.678 23.2573 124.909 23.9884C124.139 24.7195 123.15 25.085 121.94 25.085C121.207 25.085 120.401 24.8474 119.522 24.3722C119.045 24.1529 118.642 24.0067 118.312 23.9336C117.982 23.8239 117.616 23.7874 117.213 23.8239C114.977 24.3357 113.401 26.7482 112.485 31.0616V41.4246L116.608 46.3045H102.205Z" fill="#ffffff"/>
<path d="M133.098 31.6099C133.428 35.119 134.564 37.824 136.507 39.7248C138.449 41.5891 141.069 42.5212 144.368 42.5212C146.237 42.5212 147.904 42.1922 149.37 41.5342C150.873 40.8763 152.393 39.7979 153.933 38.2992L154.482 38.7379C153.09 41.4063 151.184 43.435 148.765 44.8241C146.346 46.2131 143.506 46.9076 140.245 46.9076C137.166 46.9076 134.473 46.3045 132.164 45.0982C129.892 43.8554 128.133 42.1008 126.886 39.8345C125.64 37.5682 125.017 34.9363 125.017 31.9389C125.017 28.8318 125.659 26.0903 126.941 23.7143C128.224 21.3383 130.02 19.4923 132.329 18.1764C134.674 16.8239 137.368 16.1476 140.41 16.1476C144.771 16.1476 148.087 17.5001 150.359 20.2051C152.668 22.9101 153.749 26.7117 153.603 31.6099H133.098ZM140.245 19.2181C138.046 19.2181 136.305 20.0589 135.022 21.7404C133.776 23.3853 133.08 25.7247 132.933 28.7587H146.841C146.841 25.6151 146.273 23.2391 145.137 21.6307C144.038 20.0223 142.407 19.2181 140.245 19.2181Z" fill="#ffffff"/>
<path d="M163.232 31.6099C163.562 35.119 164.698 37.824 166.64 39.7248C168.582 41.5891 171.203 42.5212 174.501 42.5212C176.37 42.5212 178.038 42.1922 179.503 41.5342C181.006 40.8763 182.527 39.7979 184.066 38.2992L184.616 38.7379C183.223 41.4063 181.318 43.435 178.899 44.8241C176.48 46.2131 173.64 46.9076 170.378 46.9076C167.3 46.9076 164.606 46.3045 162.297 45.0982C160.025 43.8554 158.266 42.1008 157.02 39.8345C155.774 37.5682 155.151 34.9363 155.151 31.9389C155.151 28.8318 155.792 26.0903 157.075 23.7143C158.358 21.3383 160.153 19.4923 162.462 18.1764C164.808 16.8239 167.501 16.1476 170.543 16.1476C174.904 16.1476 178.221 17.5001 180.493 20.2051C182.802 22.9101 183.883 26.7117 183.736 31.6099H163.232ZM170.378 19.2181C168.179 19.2181 166.439 20.0589 165.156 21.7404C163.91 23.3853 163.214 25.7247 163.067 28.7587H176.975C176.975 25.6151 176.407 23.2391 175.271 21.6307C174.171 20.0223 172.54 19.2181 170.378 19.2181Z" fill="#ffffff"/>
<path d="M186.003 46.3045L188.587 40.5473V23.2208L183.364 17.2442H195.568V24.8109C196.741 22.0693 198.335 19.9675 200.351 18.5053C202.366 17.0432 203.272 16.3121 205.91 16.3121C208.952 16.3121 211.297 17.3356 212.947 19.3826C218.89 26.7597 217.678 40.7666 225.722 46.6335H221.501C208.376 46.6335 210.883 29.3593 206.46 23.2208C205.617 22.0511 204.353 21.4662 202.667 21.4662C200.871 21.4662 200.717 22.1607 199.361 23.5498C198.005 24.9023 196.979 26.8031 196.283 29.2522V41.4246L200.406 46.3045H186.003Z" fill="#ffffff"/>
<path d="M233.91 46.6335H227.123C227.123 46.6335 224.405 39.67 221.883 29.5992C219.36 19.5284 214.472 17.6094 212.614 16.8897C212.614 16.8897 213.545 16.8897 219.456 16.8897C225.366 16.8897 227.28 21.1444 229.24 26.53C231.2 31.9156 232.866 39.67 232.866 39.67L238.173 24.1529L237.293 21.7952L233.005 17.2442H248.232L245.704 22.7821L252.026 39.999L258.402 22.1242L254.334 17.2442H263.954L253.235 46.6335H246.748L240.097 29.2522L233.91 46.6335Z" fill="#ffffff"/>
<path d="M262.302 31.7195C262.302 28.5759 262.962 25.8344 264.281 23.4949C265.637 21.1189 267.543 19.3095 269.998 18.0667C272.49 16.7873 275.367 16.1476 278.629 16.1476C281.964 16.1476 284.859 16.769 287.314 18.0119C289.806 19.2547 291.712 21.0458 293.031 23.3853C294.387 25.6882 295.065 28.4114 295.065 31.555C295.065 34.6987 294.406 37.4219 293.086 39.7248C291.767 42.0277 289.88 43.8006 287.424 45.0434C284.969 46.2862 282.037 46.9076 278.629 46.9076C275.257 46.9076 272.344 46.3045 269.888 45.0982C267.433 43.8554 265.546 42.1008 264.226 39.8345C262.944 37.5316 262.302 34.8266 262.302 31.7195ZM286.93 31.555C286.93 27.6072 286.197 24.5733 284.731 22.4532C283.301 20.2965 281.267 19.2181 278.629 19.2181C275.99 19.2181 273.956 20.2782 272.527 22.3983C271.134 24.4819 270.438 27.5341 270.438 31.555C270.438 39.7797 273.168 43.892 278.629 43.892C281.341 43.892 283.393 42.8502 284.786 40.7666C286.215 38.6465 286.93 35.576 286.93 31.555Z" fill="#ffffff"/>
<path d="M296.247 31.7195C296.247 28.5759 296.907 25.8344 298.226 23.4949C299.582 21.1189 301.488 19.3095 303.943 18.0667C306.435 16.7873 309.312 16.1476 312.574 16.1476C315.909 16.1476 318.804 16.769 321.259 18.0119C323.751 19.2547 325.657 21.0458 326.977 23.3853C328.332 25.6882 329.01 28.4114 329.01 31.555C329.01 34.6987 328.351 37.4219 327.031 39.7248C325.712 42.0277 323.825 43.8006 321.369 45.0434C318.914 46.2862 315.982 46.9076 312.574 46.9076C309.202 46.9076 306.289 46.3045 303.833 45.0982C301.378 43.8554 299.491 42.1008 298.171 39.8345C296.889 37.5316 296.247 34.8266 296.247 31.7195ZM320.875 31.555C320.875 27.6072 320.142 24.5733 318.676 22.4532C317.247 20.2965 315.213 19.2181 312.574 19.2181C309.935 19.2181 307.901 20.2782 306.472 22.3983C305.079 24.4819 304.383 27.5341 304.383 31.555C304.383 39.7797 307.113 43.892 312.574 43.892C315.286 43.892 317.338 42.8502 318.731 40.7666C320.16 38.6465 320.875 35.576 320.875 31.555Z" fill="#ffffff"/>
<path d="M342.451 46.9076C340.032 46.9076 337.888 46.268 336.019 44.9886C334.187 43.7092 332.758 41.8998 331.732 39.5603C330.705 37.2209 330.192 34.5159 330.192 31.4454C330.192 28.4114 330.687 25.743 331.677 23.4401C332.703 21.1372 334.132 19.3461 335.964 18.0667C337.833 16.7873 339.977 16.1476 342.396 16.1476C344.522 16.1476 346.427 16.6594 348.113 17.6829C349.836 18.6698 351.21 20.0589 352.236 21.85V11.158L347.014 5.18148H359.932V41.4794L364 46.3045H352.896V39.67C352.053 41.8998 350.697 43.6726 348.828 44.9886C346.995 46.268 344.87 46.9076 342.451 46.9076ZM345.474 41.9181C346.977 41.9181 348.315 41.516 349.487 40.7118C350.697 39.871 351.613 38.7013 352.236 37.2026V25.9075C351.613 24.4088 350.697 23.2391 349.487 22.3983C348.315 21.5576 346.977 21.1372 345.474 21.1372C343.202 21.1372 341.425 22.0693 340.142 23.9336C338.86 25.7613 338.218 28.2835 338.218 31.5002C338.218 34.7535 338.86 37.3123 340.142 39.1765C341.462 41.0042 343.239 41.9181 345.474 41.9181Z" fill="#ffffff"/>
</svg>
